<?xml version="1.0" encoding="UTF-8" standalone="no"?>
<!-- Created with sK1/UniConvertor (http://sk1project.org/) -->
<svg xmlns:dc="http://purl.org/dc/elements/1.1/" xmlns:cc="http://creativecommons.org/ns#" xmlns:rdf="http://www.w3.org/1999/02/22-rdf-syntax-ns#" xmlns:svg="http://www.w3.org/2000/svg" xmlns="http://www.w3.org/2000/svg" xmlns:xlink="http://www.w3.org/1999/xlink" xmlns:sodipodi="http://sodipodi.sourceforge.net/DTD/sodipodi-0.dtd" xmlns:inkscape="http://www.inkscape.org/namespaces/inkscape" width="810" height="500" viewBox="0 0 648.00003 399.99998" id="svg2" version="1.1" inkscape:version="0.48.1 r9760" sodipodi:docname="balalaika.svg" style="fill-rule:evenodd">
  <metadata id="metadata820">
    <rdf:RDF>
      <cc:Work rdf:about="">
        <dc:format>image/svg+xml</dc:format>
        <dc:type rdf:resource="http://purl.org/dc/dcmitype/StillImage"/>
        <dc:title/>
      </cc:Work>
    </rdf:RDF>
  </metadata>
  <sodipodi:namedview pagecolor="#ffffff" bordercolor="#666666" borderopacity="1" objecttolerance="10" gridtolerance="10" guidetolerance="10" inkscape:pageopacity="0" inkscape:pageshadow="2" inkscape:window-width="1280" inkscape:window-height="930" id="namedview818" showgrid="false" inkscape:snap-grids="false" inkscape:snap-to-guides="false" inkscape:snap-nodes="false" inkscape:zoom="0.45546793" inkscape:cx="336.19416" inkscape:cy="285.49612" inkscape:window-x="0" inkscape:window-y="32" inkscape:window-maximized="1" inkscape:current-layer="svg2"/>
  <defs id="defs4">
    <linearGradient inkscape:collect="always" id="linearGradient4614">
      <stop style="stop-color:#000000;stop-opacity:1;" offset="0" id="stop4616"/>
      <stop style="stop-color:#000000;stop-opacity:0;" offset="1" id="stop4618"/>
    </linearGradient>
    <linearGradient inkscape:collect="always" id="linearGradient3639">
      <stop id="stop3643" offset="0" style="stop-color:#4d4d4d;stop-opacity:1"/>
      <stop id="stop3641" offset="1" style="stop-color:#000000;stop-opacity:1;"/>
    </linearGradient>
    <linearGradient inkscape:collect="always" id="linearGradient3629">
      <stop id="stop3633" offset="0" style="stop-color:#4d4d4d;stop-opacity:1"/>
      <stop id="stop3631" offset="1" style="stop-color:#000000;stop-opacity:1;"/>
    </linearGradient>
    <linearGradient inkscape:collect="always" id="linearGradient3619">
      <stop id="stop3623" offset="0" style="stop-color:#333333;stop-opacity:1"/>
      <stop id="stop3621" offset="1" style="stop-color:#000000;stop-opacity:1;"/>
    </linearGradient>
    <linearGradient inkscape:collect="always" id="linearGradient3472">
      <stop style="stop-color:#330000;stop-opacity:1;" offset="0" id="stop3474"/>
      <stop style="stop-color:#000000;stop-opacity:1" offset="1" id="stop3476"/>
    </linearGradient>
    <linearGradient inkscape:collect="always" id="linearGradient3462">
      <stop id="stop3466" offset="0" style="stop-color:#fdcf44;stop-opacity:1"/>
      <stop id="stop3464" offset="1" style="stop-color:#e68505;stop-opacity:1;"/>
    </linearGradient>
    <linearGradient inkscape:collect="always" id="linearGradient5777">
      <stop style="stop-color:#330000;stop-opacity:1;" offset="0" id="stop5779"/>
      <stop style="stop-color:#600000;stop-opacity:1" offset="1" id="stop5781"/>
    </linearGradient>
    <linearGradient inkscape:collect="always" id="linearGradient5769">
      <stop style="stop-color:#330000;stop-opacity:1;" offset="0" id="stop5771"/>
      <stop style="stop-color:#630000;stop-opacity:1" offset="1" id="stop5773"/>
    </linearGradient>
    <linearGradient inkscape:collect="always" id="linearGradient5748">
      <stop id="stop5752" offset="0" style="stop-color:#630000;stop-opacity:1"/>
      <stop id="stop5750" offset="1" style="stop-color:#330000;stop-opacity:1"/>
    </linearGradient>
    <linearGradient inkscape:collect="always" id="linearGradient5738">
      <stop id="stop5742" offset="0" style="stop-color:#000000;stop-opacity:1"/>
      <stop id="stop5740" offset="1" style="stop-color:#330000;stop-opacity:1;"/>
    </linearGradient>
    <linearGradient inkscape:collect="always" id="linearGradient5433">
      <stop id="stop5437" offset="0" style="stop-color:#660000;stop-opacity:1"/>
      <stop id="stop5435" offset="1" style="stop-color:#330000;stop-opacity:1;"/>
    </linearGradient>
    <linearGradient inkscape:collect="always" id="linearGradient4504">
      <stop style="stop-color:#ffd84c;stop-opacity:1;" offset="0" id="stop4506"/>
      <stop style="stop-color:#f0a520;stop-opacity:1" offset="1" id="stop4508"/>
    </linearGradient>
    <marker id="ArrowEnd" viewBox="0 0 10 10" refX="0" refY="5" markerUnits="strokeWidth" markerWidth="4" markerHeight="3" orient="auto">
      <path d="M 0,0 10,5 0,10 z" id="path7" inkscape:connector-curvature="0"/>
    </marker>
    <marker id="ArrowStart" viewBox="0 0 10 10" refX="10" refY="5" markerUnits="strokeWidth" markerWidth="4" markerHeight="3" orient="auto">
      <path d="M 10,0 0,5 10,10 z" id="path10" inkscape:connector-curvature="0"/>
    </marker>
    <filter inkscape:collect="always" id="filter5324" color-interpolation-filters="sRGB">
      <feGaussianBlur inkscape:collect="always" stdDeviation="12.606042" id="feGaussianBlur5326"/>
    </filter>
    <radialGradient inkscape:collect="always" xlink:href="#linearGradient4504" id="radialGradient4779" gradientUnits="userSpaceOnUse" gradientTransform="matrix(0.759045, -0.651038, 0.650517, 0.758437, -1252.46, 2469.05)" cx="2365.0454" cy="-433.54977" fx="2365.0454" fy="-433.54977" r="182.08337"/>
    <radialGradient inkscape:collect="always" xlink:href="#linearGradient5769" id="radialGradient4781" gradientUnits="userSpaceOnUse" gradientTransform="matrix(1, 0, 0, 1.05994, 0, -12.9146)" cx="1319.0822" cy="196.4057" fx="1319.0822" fy="196.4057" r="29.612551"/>
    <radialGradient inkscape:collect="always" xlink:href="#linearGradient5777" id="radialGradient4783" gradientUnits="userSpaceOnUse" gradientTransform="matrix(1, 0, 0, 0.739197, 0, 150.912)" cx="1485.5115" cy="597.6532" fx="1485.5115" fy="597.6532" r="39.37495"/>
    <radialGradient inkscape:collect="always" xlink:href="#linearGradient5433" id="radialGradient4785" gradientUnits="userSpaceOnUse" gradientTransform="matrix(1, 0, 0, 1.69179, 0, -293.534)" cx="2041.3903" cy="424.3125" fx="2041.3903" fy="424.3125" r="98.047195"/>
    <linearGradient inkscape:collect="always" xlink:href="#linearGradient3472" id="linearGradient4787" gradientUnits="userSpaceOnUse" x1="1879.9673" y1="203.92076" x2="1306.7339" y2="405.12274"/>
    <radialGradient inkscape:collect="always" xlink:href="#linearGradient5748" id="radialGradient4789" gradientUnits="userSpaceOnUse" gradientTransform="matrix(0.997089, -0.0762525, 0.0851488, 1.11342, -22.6573, 81.3879)" cx="1541.5315" cy="318.79941" fx="1541.5315" fy="318.79941" r="43.758266"/>
    <radialGradient inkscape:collect="always" xlink:href="#linearGradient5738" id="radialGradient4791" gradientUnits="userSpaceOnUse" cx="1231.8962" cy="525.29413" fx="1231.8962" fy="525.29413" r="135.84238"/>
    <radialGradient inkscape:collect="always" xlink:href="#linearGradient3462" id="radialGradient4793" gradientUnits="userSpaceOnUse" gradientTransform="matrix(1, 0, 0, 0.640941, 0, 65.6241)" cx="2593.8452" cy="182.76709" fx="2593.8452" fy="182.76709" r="95.251541"/>
    <radialGradient inkscape:collect="always" xlink:href="#linearGradient3619" id="radialGradient4795" gradientUnits="userSpaceOnUse" gradientTransform="matrix(1, 0, 0, 1.06753, 0, -8.16516)" cx="2022.1888" cy="120.91175" fx="2022.1888" fy="120.91175" r="6.448926"/>
    <radialGradient inkscape:collect="always" xlink:href="#linearGradient3629" id="radialGradient4797" gradientUnits="userSpaceOnUse" gradientTransform="matrix(1, 0, 0, 1.06753, 0, -7.49419)" cx="2049.5125" cy="110.97585" fx="2049.5125" fy="110.97585" r="6.448926"/>
    <radialGradient inkscape:collect="always" xlink:href="#linearGradient3639" id="radialGradient4799" gradientUnits="userSpaceOnUse" gradientTransform="matrix(1, 0, 0, 1.06753, 0, -6.65548)" cx="2081.5413" cy="98.555977" fx="2081.5413" fy="98.555977" r="6.448926"/>
    <radialGradient inkscape:collect="always" xlink:href="#linearGradient4614" id="radialGradient4954" gradientUnits="userSpaceOnUse" gradientTransform="matrix(1.4031, -0.00930233, 0.000304549, 0.0372083, -2.92036, 838.698)" cx="6.5866523" cy="871.047" fx="6.5866523" fy="871.047" r="472.04202"/>
  </defs>
  <g transform="matrix(0.749026, 0.662541, -0.662541, 0.749026, 1932.86, -333.262)" id="g96"/>
  <g id="g816" transform="translate(0, -441.89)"/>
  <g id="g5394" transform="matrix(0.749026, 0.662541, -0.662541, 0.749026, 1254.88, -1176.35)"/>
  <g id="g4956" transform="matrix(0.981459, 0, 0, 0.981459, -7.70079, 7.31885)">
    <path transform="matrix(0.677157, 0, 0, 0.752397, 144.182, -273.858)" d="m 761.85388,871.047 c 0,9.70052 -211.34041,17.56435 -472.04202,17.56435 -260.701611,0 -472.04202,-7.86383 -472.04202,-17.56435 0,-9.70053 211.340409,-17.56436 472.04202,-17.56436 260.70161,0 472.04202,7.86383 472.04202,17.56436 z" sodipodi:ry="17.564354" sodipodi:rx="472.04202" sodipodi:cy="871.047" sodipodi:cx="289.81186" id="path4612" style="opacity:0.44954128;fill:url(#radialGradient4954);fill-opacity:1;stroke:none" sodipodi:type="arc"/>
    <g transform="matrix(0.714377, 0, 0, 0.714377, -919.393, -54.7574)" id="g4435">
      <rect style="fill:#000000;fill-opacity:1;stroke:none" id="rect3613" width="6.1475244" height="21.516335" x="-1880.4563" y="761.30841" transform="matrix(-0.947702, 0.319157, 0.319157, 0.947702, 0, 0)"/>
      <rect transform="matrix(-0.947702, 0.319157, 0.319157, 0.947702, 0, 0)" y="761.49548" x="-1909.2249" height="21.516335" width="6.1475244" id="rect3615" style="fill:#000000;fill-opacity:1;stroke:none"/>
      <rect style="fill:#000000;fill-opacity:1;stroke:none" id="rect3617" width="6.1475244" height="21.516335" x="-1943.6956" y="759.34363" transform="matrix(-0.947702, 0.319157, 0.319157, 0.947702, 0, 0)"/>
      <path sodipodi:nodetypes="cccc" style="fill:#e57f00;stroke:none" d="m 1311.4198,188.9347 c 149.1359,-17.51503 274.801,5.97695 404.7766,60.19703 -47.0074,152.69084 -111.8885,263.9856 -228.1376,358.61318 -48.8936,-64.3419 -171.8714,-347.42836 -176.639,-418.81021 z" id="path94" inkscape:connector-curvature="0"/>
      <path d="m 343.40625,439.90625 c -114.83208,41.66406 -210.17579,99.32109 -298.4375,192.6875 13.041804,9.23883 31.097581,20.76496 52.6875,32.96875 33.95387,19.19257 75.78958,40.53867 118.5,60.8125 70.60547,33.51508 145.09999,64.01681 187.65625,77.40625 16.37593,-126.70646 -5.38635,-237.02387 -60.40625,-363.875 z" id="path4502" style="fill:url(#radialGradient4779);fill-opacity:1;stroke:none;filter:url(#filter5324)" inkscape:original="M 355.4375 412.0625 C 222.15938 457.56447 112.4772 523.22839 12.375 635.15625 C 63.239447 685.46436 342.90456 816.04401 422.15625 831.84375 C 446.53513 683.94549 421.39166 557.57622 355.4375 412.0625 z " inkscape:radius="-22.216105" sodipodi:type="inkscape:offset" transform="matrix(0.759045, 0.651038, -0.651038, 0.759045, 1717.54, -295.937)"/>
      <path inkscape:connector-curvature="0" style="opacity:0.68807337;fill:#e57f00;stroke:none" d="m 1755.625,230.78125 c -1.1252,0.002 -2.2479,0.025 -3.375,0.0312 -14.365,7.27252 -28.7465,14.53578 -43.125,21.78125 -15.8081,7.41134 -31.5926,14.88036 -47.375,22.34375 -2.7615,1.06629 -2.3131,0.90861 -7,2.71875 -1.1052,0.43109 -2.0408,0.76506 -3.125,1.1875 0.3122,1.23202 0.6083,2.45755 0.9375,3.71875 4.4607,-2.21014 8.9186,-4.43691 13.375,-6.65625 0.6332,-0.27324 1.2728,-0.50926 1.9063,-0.78125 5.7436,-2.19402 9.073,-3.48069 26.625,-10.25 l 1,-1.65625 c 25.1746,-10.81814 50.3596,-21.59266 75.5624,-32.34375 -1.5774,-0.0224 -3.169,-0.048 -4.75,-0.0625 -23.4267,9.98817 -46.8462,20.02019 -70.25,30.0625 3.3095,-1.6619 6.6294,-3.33544 9.9376,-5 17.9876,-8.43491 36,-16.8229 54.0624,-25.09375 -1.3332,-0.004 -2.6642,-0.002 -4,0 -1.4278,0.65657 -2.8536,1.31093 -4.2812,1.96875 1.2955,-0.65487 2.5796,-1.31394 3.875,-1.96875 z m 24.375,0.25 c -3.2989,1.40726 -1.6528,0.71835 -26.2812,11.21875 -33.5893,13.9922 -67.0532,28.25771 -100.5938,42.375 0.1662,0.62701 0.3299,1.27238 0.5,1.90625 32.797,-13.82376 65.5629,-27.76096 98.4062,-41.46875 35.3375,-15.07704 32.3513,-13.81684 32.5313,-13.90625 -1.5206,-0.0435 -3.0386,-0.0889 -4.5625,-0.125 z m 6.7188,0.1875 c -6.2165,2.91692 -12.7562,5.98576 -25.0626,11.75 -48.9901,21.68924 -64.1628,28.36878 -106.9374,47.625 0.1249,0.45066 0.2487,0.92106 0.375,1.375 14.2917,-6.43785 26.4068,-11.89194 36.5937,-16.4375 -12.1514,5.63585 -24.3168,11.27183 -36.4687,16.90625 0.1462,0.52462 0.3196,1.03389 0.4687,1.5625 27.7286,-12.88471 55.4281,-25.77038 83.1563,-38.65625 13.3538,-6.25657 20.3101,-9.52666 27.5937,-12.9375 8.3754,-3.66559 16.7201,-7.33195 25.0937,-11 -1.6016,-0.0579 -3.2073,-0.13786 -4.8124,-0.1875 z m -80.6876,0.9375 c -1.5002,0.0789 -3.0273,0.16429 -4.5312,0.25 -18.265,8.27349 -36.4884,16.58783 -54.7188,24.9375 0.1025,0.54096 0.2042,1.10615 0.3126,1.65625 19.6217,-8.9948 39.2766,-17.93524 58.9374,-26.84375 z m 120.4376,1.15625 c -12.8058,5.67274 -25.6216,11.35 -38.4376,17 -42.9408,18.52382 -85.9851,36.82823 -129.0624,55.03125 0.1504,0.50589 0.2848,1.02225 0.4374,1.53125 42.4215,-17.88679 84.7959,-35.88533 127.0938,-54.0625 14.5417,-6.38096 29.0645,-12.77931 43.5938,-19.1875 -1.2165,-0.0951 -2.4071,-0.22203 -3.625,-0.3125 z m 13.125,1.09375 c -52.7823,23.61945 -105.6309,47.02625 -158.6563,70.09375 -6.676,2.39862 -13.3615,4.80359 -20.0313,7.21875 0.2628,0.8598 0.5446,1.75681 0.8126,2.625 5.7004,-2.47567 11.3958,-4.95455 17.0937,-7.4375 6.6484,-2.38834 13.3138,-4.75441 19.9687,-7.125 -12.2689,5.11249 -24.5742,10.18284 -36.875,15.21875 0.1605,0.51982 0.3062,1.03988 0.4688,1.5625 21.3364,-8.81167 42.6396,-17.65555 63.9375,-26.5625 14.9525,-5.26331 29.9528,-10.48528 44.9375,-15.65625 18.8367,-6.50021 37.7269,-12.80589 56.5938,-19.21875 6.5619,-2.1901 13.1146,-4.372 19.6874,-6.53125 -14.3346,6.72106 -28.6632,13.4392 -43,20.15625 -32.8799,15.40484 -79.2022,37.13996 -112.375,52.3125 -8.2421,3.76976 -16.5181,7.46421 -24.7812,11.1875 0.2049,0.62526 0.4188,1.24605 0.625,1.875 34.3747,-14.48062 68.7474,-28.93254 103.125,-43.40625 -34.1054,15.25444 -68.2205,30.42673 -102.4062,45.5 0.1249,0.37662 0.2498,0.7471 0.375,1.125 49.5292,-21.88977 98.9327,-44.00006 148.3437,-66.15625 21.362,-8.99456 42.7294,-17.97995 64.0937,-26.96875 3.0332,-1.27635 6.0607,-2.56764 9.0938,-3.84375 -0.7585,-0.111 -1.522,-0.20349 -2.2812,-0.3125 -8.1499,3.43084 -16.2877,6.85045 -24.4376,10.28125 7.7777,-3.4863 15.5648,-6.955 23.3438,-10.4375 -0.7136,-0.10162 -1.4421,-0.21256 -2.1562,-0.3125 -22.26,9.97829 -44.4921,19.98583 -66.75,29.96875 -41.0154,17.2647 -82.0408,34.53149 -123.0626,51.78125 32.8715,-15.10736 76.3478,-35.56764 107.9063,-50.375 18.5044,-8.68222 36.9964,-17.34895 55.5,-26.03125 6.5192,-2.12111 13.0628,-4.19526 19.5937,-6.28125 -1.4427,-0.19076 -2.8987,-0.3786 -4.3437,-0.5625 -0.6471,0.20912 -1.2904,0.4155 -1.9375,0.625 0.4812,-0.2257 0.9563,-0.46175 1.4375,-0.6875 -0.8826,-0.11187 -1.7726,-0.23444 -2.6563,-0.34375 -3.2671,1.53147 -6.5452,3.06206 -9.8124,4.59375 -10.5862,3.46145 -21.1602,6.95731 -31.7188,10.5 -18.8899,6.44902 -37.7944,12.84394 -56.6562,19.375 -7.166,2.48134 -14.3404,4.96774 -21.5,7.46875 34.3142,-14.43539 68.5646,-29.03701 102.7187,-43.84375 -1.1512,-0.12037 -2.3161,-0.25886 -3.4687,-0.375 -14.9644,6.44961 -29.8771,12.81663 -46.5626,19.9375 -26.2518,11.20352 -52.5027,22.40098 -78.8124,33.46875 -8.3459,2.94637 -16.6636,5.90231 -25,8.875 47.5327,-20.79991 94.9557,-41.86491 142.3124,-63.0625 -0.8892,-0.0816 -1.7972,-0.13973 -2.6874,-0.21875 z m -168.4376,0.1875 c -1.3686,0.11825 -2.722,0.25118 -4.0937,0.375 -7.4111,3.44011 -14.8366,6.87691 -22.25,10.3125 0.064,0.49651 0.1169,0.96074 0.1875,1.46875 8.7296,-4.04856 17.4293,-8.10206 26.1562,-12.15625 z m -12.0624,1.09375 c -2,0.19547 -3.9933,0.38639 -6,0.59375 -2.9617,1.20406 -5.9122,2.45503 -8.875,3.65625 0.074,0.85222 0.1526,1.69926 0.25,2.59375 4.8754,-2.2846 9.7443,-4.57055 14.625,-6.84375 z m 235.375,5.28125 c -18.461,8.45375 -36.9293,16.9175 -55.375,25.40625 -55.9023,25.96932 -111.7449,52.10654 -167.625,78.125 0.1543,0.45699 0.3137,0.91634 0.4687,1.375 55.3394,-25.86042 110.6201,-51.78873 166,-77.5625 19.503,-9.05944 39.0416,-18.07829 58.5937,-27.03125 -0.6817,-0.10425 -1.3802,-0.2098 -2.0624,-0.3125 z m 48.1874,8.5625 c -43.2953,16.23836 -86.7593,31.97585 -130.375,47.34375 -46.6432,16.70964 -93.313,33.39291 -139.9374,50.15625 0.2003,0.58896 0.3921,1.18956 0.5937,1.78125 45.8932,-16.49837 91.8295,-32.89088 137.75,-49.3125 45.442,-15.98091 90.7429,-32.32793 135.875,-49.15625 -1.3025,-0.27327 -2.6025,-0.54481 -3.9063,-0.8125 z m 6.5313,1.375 c -90.2696,37.80292 -180.5784,75.4695 -271.2187,112.375 0.1651,0.46975 0.3342,0.93508 0.5,1.40625 88.3091,-36.05869 176.3523,-72.73325 264.3437,-109.5625 -14.346,6.63546 -28.6809,13.27606 -43,19.96875 -18.0901,8.4553 -36.1725,16.95153 -54.2187,25.5 -32.758,13.93906 -65.5358,27.85519 -98.3126,41.75 -22.2833,9.31202 -44.555,18.63558 -66.8437,27.9375 0.1615,0.45459 0.3056,0.8884 0.4687,1.34375 21.72,-9.0824 43.4406,-18.1611 65.1563,-27.25 23.2714,-9.89039 46.5115,-19.76233 69.7813,-29.65625 -43.7424,20.83301 -87.3818,41.85109 -131.0626,62.8125 -0.5111,0.20964 -1.0512,0.41583 -1.5624,0.625 0.3369,0.9331 0.691,1.84386 1.0312,2.78125 7.3772,-3.57127 15.5313,-7.43265 25.6875,-12.15625 0.6844,-0.31812 1.3466,-0.65125 2.0313,-0.96875 42.0688,-17.2876 84.1503,-34.60343 126.1874,-51.96875 11.3382,-4.7166 22.6586,-9.44884 34,-14.15625 10.6364,-3.92954 21.3173,-7.79484 32,-11.59375 26.5812,-9.30535 53.1478,-18.61864 79.7813,-27.78125 -12.3641,5.38917 -24.7309,10.78814 -37.0625,16.25 -33.0696,14.64697 -46.0233,20.55096 -80,35.875 -59.0842,26.93199 -118.2923,53.64315 -177.7188,79.8125 0.1752,0.47096 0.3557,0.93426 0.5313,1.40625 60.2617,-26.42725 120.2784,-53.35299 180.2187,-80.5 35.0025,-15.67176 46.4156,-20.89656 80.4063,-35.8125 13.992,-6.14005 28.0658,-12.15805 42.0937,-18.21875 -1.9498,-0.5097 -3.9232,-1.00263 -5.875,-1.5 -27.3229,9.4271 -54.5728,19.02254 -81.8437,28.59375 9.0106,-3.73739 17.9901,-7.47959 27,-11.21875 15.6081,-6.45845 31.2625,-12.89676 46.875,-19.34375 -0.8087,-0.19882 -1.6286,-0.42825 -2.4375,-0.625 -33.0635,13.70256 -66.1315,27.43733 -99.1875,41.15625 -53.2856,19.52919 -105.9741,40.72628 -157.625,64.25 42.3725,-20.34796 84.7535,-40.69395 127.25,-60.78125 37.8266,-16.09625 75.6161,-32.22478 113.4063,-48.40625 -0.7729,-0.17384 -1.5394,-0.35936 -2.3126,-0.53125 -25.9949,11.13937 -51.9841,22.28451 -78,33.375 6.2715,-2.93974 12.5349,-5.88616 18.8126,-8.8125 18.1446,-8.45825 36.3582,-16.79009 54.5312,-25.1875 l 0.1875,-0.3125 c -1.3259,-0.28807 -2.6729,-0.5927 -4,-0.875 z m 74.9063,19.0625 c -34.1525,13.96964 -68.3279,27.88616 -102.5626,41.65625 -12.3404,4.88592 -24.7082,9.74325 -37.0624,14.59375 -23.1497,8.34394 -46.3411,16.57339 -69.4688,24.96875 -45.7351,16.60172 -53.873,19.6653 -100.5312,36.84375 -8.1094,2.95954 -16.2147,5.94559 -24.3126,8.9375 0.18,0.48255 0.3509,0.95391 0.5313,1.4375 8.8411,-3.25954 17.674,-6.5011 26.5313,-9.71875 47.3341,-17.35304 54.4945,-20.03876 100.875,-36.78125 2.0339,-0.73424 4.059,-1.45545 6.0937,-2.1875 -44.158,17.12937 -88.3894,34.09131 -132.6563,50.9375 0.1653,0.44097 0.3032,0.8707 0.4688,1.3125 61.9401,-23.5426 123.8303,-47.23278 185.5625,-71.3125 19.4071,-6.92555 38.7976,-13.89201 58.125,-21.03125 9.6887,-3.57891 19.3388,-7.3155 29,-10.96875 21.6754,-8.56099 43.5095,-16.91949 64.4687,-27.15625 -1.6914,-0.51084 -3.37,-1.02958 -5.0624,-1.53125 z m 19.0624,5.875 c -20.8568,10.23869 -41.7385,20.42533 -62.7187,30.40625 -28.5872,13.59971 -59.3329,27.80049 -87.9687,41.09375 -62.732,28.74367 -125.7418,56.87566 -189.125,84.15625 0.3562,0.91416 0.7041,1.83403 1.0624,2.75 14.862,-5.50751 29.6988,-11.02788 44.5626,-16.53125 -3.5918,1.56024 -7.1854,3.10514 -10.7813,4.65625 -1.6919,0.61159 -3.3368,1.2295 -5.125,1.875 -9.5181,3.43526 -19.055,6.80798 -28.5937,10.1875 0.1831,0.46755 0.3791,0.93801 0.5624,1.40625 3.3455,-1.18426 6.6879,-2.37244 10.0313,-3.5625 -3.2676,1.39126 -6.5425,2.77075 -9.8125,4.15625 0.2451,0.62431 0.5045,1.24964 0.75,1.875 13.6111,-5.75604 27.214,-11.54798 40.7812,-17.40625 37.3373,-13.52904 51.9418,-19.21671 93.2813,-34.8125 61.4,-23.74062 31.5293,-12.07424 89.6875,-35 l -1.9375,-0.4375 c 16.7702,-6.43189 33.5245,-12.9205 50.25,-19.46875 33.1937,-13.44666 66.4253,-26.75766 98.5937,-42.5625 0.6257,-0.30801 1.2252,-0.59979 1.8438,-0.90625 -1.0272,-0.36407 -2.0351,-0.73303 -3.0625,-1.09375 -0.8076,0.40221 -1.5854,0.81369 -2.4063,1.21875 -32.0472,15.81742 -65.2056,29.13079 -98.2812,42.59375 -56.2296,22.12301 -112.725,43.45545 -169.3438,64.5625 22.2272,-10.05121 44.0517,-20.88943 65.8126,-31.90625 1.2148,-0.54917 2.4427,-1.10491 3.6562,-1.65625 11.3275,-5.36709 14.6415,-6.76954 25.1875,-12.25 5.119,-2.66034 10.6705,-5.71608 15.6875,-8.65625 1.2569,-0.73667 2.4243,-1.61246 3.7188,-2.28125 1.1332,-0.58539 2.3552,-1.00514 3.5312,-1.5 l -2.1562,-0.5 c 21.0848,-9.72759 43.0072,-19.86926 62.875,-29.25 20.9618,-9.89737 41.8386,-19.98928 62.6874,-30.125 -1.0826,-0.34714 -2.1671,-0.68781 -3.25,-1.03125 z m -44.5,6.625 c -12.4871,5.31737 -25.1346,10.28366 -37.7187,15.3125 -2.1489,0.82066 -4.2905,1.64279 -6.4375,2.46875 14.7267,-5.91179 29.4431,-11.83576 44.1562,-17.78125 z m 89.9063,8.8125 c -0.9952,0.45811 -1.9734,0.94809 -2.9687,1.40625 -0.015,0.006 -0.048,0.025 -0.063,0.0312 -16.1242,6.55891 -32.2306,13.16761 -48.3437,19.75 -53.5265,21.8664 -43.1755,17.59421 -98.7813,40 -76.5722,30.91891 -153.7693,60.21186 -230.6874,90.25 0.1688,0.43379 0.3597,0.84796 0.5312,1.28125 77.6482,-30.30565 155.5979,-59.78183 232.9375,-90.875 57.5889,-23.09685 43.7576,-17.46103 99.125,-39.9375 -29.7366,13.34269 -59.5962,26.54021 -89.375,39.78125 -5.5816,2.05569 -11.1469,4.10921 -16.7187,6.1875 -12.3534,4.60799 -24.6621,9.28828 -37,13.9375 -62.9044,23.8554 -125.7837,47.73601 -188.6876,71.59375 0.1934,0.49175 0.3991,1.00816 0.5938,1.5 63.7861,-24.12522 127.5599,-48.2638 191.375,-72.3125 7.405,-2.76806 14.8146,-5.54134 22.2188,-8.3125 -12.2963,5.50516 -24.5786,11.02639 -36.875,16.53125 -13.8948,6.29091 -27.7942,12.6054 -41.6563,18.96875 -43.6561,18.46677 -87.327,36.92928 -131.0313,55.28125 0.191,0.4861 0.3679,0.98365 0.5626,1.46875 29.5973,-12.45321 59.2077,-24.95913 88.7812,-37.46875 -29.1679,13.57564 -58.2679,27.34679 -87.2812,41.25 0.1857,0.47365 0.372,0.93408 0.5624,1.40625 43.7854,-20.98577 87.7607,-41.56593 131.9063,-61.78125 21.224,-8.98257 42.4591,-17.96663 63.6875,-26.9375 27.886,-11.78324 55.7623,-23.51769 83.6562,-35.28125 20.2919,-7.53761 40.4867,-15.3487 60.375,-23.90625 15.21,-6.3868 30.4311,-12.77113 45.6563,-19.125 -1.4507,-0.54741 -2.8931,-1.08415 -4.3437,-1.625 -28.8259,12.17877 -57.6446,24.34913 -86.4688,36.53125 -11.4999,4.43951 -23.0588,8.76184 -34.625,13.03125 37.0747,-16.37489 74.1611,-32.70433 111.0312,-49.53125 1.6223,-0.65551 3.2526,-1.31448 4.875,-1.96875 -0.9926,-0.36494 -1.9762,-0.76315 -2.9687,-1.125 z m 18.3437,6.90625 c -35.6359,14.67086 -71.1936,29.51501 -106.75,44.375 -14.6539,6.241 -29.3406,12.44804 -43.9687,18.75 -22.933,9.87982 -72.29,31.5225 -94.75,41.34375 -16.7486,7.32369 -33.5191,14.64596 -50.2813,21.9375 -13.7429,5.69082 -27.482,11.38845 -41.2187,17.09375 -17.9095,7.4536 -35.8348,14.85428 -53.7813,22.21875 0.1698,0.43552 0.3927,0.84539 0.5626,1.28125 4.6688,-1.91041 9.333,-3.80368 14,-5.71875 -4.6287,1.99927 -9.2448,4.00275 -13.875,6 0.2062,0.52229 0.414,1.07306 0.625,1.59375 34.3201,-14.80581 68.595,-29.66466 102.875,-44.5625 78.5064,-32.3675 157.0941,-64.58891 235.375,-97.5 19.3152,-8.07495 38.612,-16.16659 57.9374,-24.21875 -1.1482,-0.44756 -2.2893,-0.90023 -3.4374,-1.34375 -19.386,8.24035 -38.7601,16.47253 -58.1563,24.6875 -51.4264,21.8735 -103.032,43.34926 -154.6563,64.75 22.1892,-9.69275 46.9873,-20.46424 61.8438,-26.84375 14.6602,-6.29515 29.3448,-12.48575 44.0312,-18.71875 35.4704,-14.74584 70.9421,-29.49428 106.5,-44.03125 -0.9556,-0.36874 -1.9195,-0.72781 -2.875,-1.09375 z m -135.9374,4.03125 c -41.9762,18.18902 -84.2618,35.6093 -126.6876,52.71875 -14.1093,5.5216 -28.2312,11.12985 -42.375,16.5625 -10.9471,4.20476 -84.4373,31.83449 -94.4374,35.625 -3.9313,1.49014 -7.8523,2.97229 -11.7813,4.46875 0.1957,0.51664 0.3651,1.04535 0.5625,1.5625 4.6952,-1.78667 9.3949,-3.59754 14.0938,-5.375 2.8674,-1.08472 90.5625,-33.98604 94.6874,-35.5625 14.1967,-5.4256 28.3048,-10.9902 42.4688,-16.5 42.7916,-17.10936 85.4524,-34.58088 127.9375,-52.4375 l -4.4687,-1.0625 z m 168.7812,9.0625 c -6.1699,2.61252 -12.3295,5.23233 -18.5,7.84375 -13.725,5.79995 -27.4599,11.61063 -41.1875,17.40625 l -2.5313,-0.59375 c -27.3119,11.59872 -54.6138,23.17881 -81.9374,34.75 -52.7158,22.20857 -105.3036,44.76811 -158.2188,66.5 -41.988,17.24424 -57.9914,23.5108 -100.6875,40.5625 -4.2829,1.67339 -8.5318,3.32098 -12.8125,5 0.2094,0.49761 0.4155,1.00216 0.625,1.5 4.9959,-1.95541 10.0011,-3.89604 15,-5.84375 44.15,-17.57627 57.4898,-22.78654 100.8438,-40.53125 39.7424,-16.26661 79.3123,-32.9702 118.9062,-49.59375 -19.4496,8.53657 -38.8331,17.17555 -58.1562,26 -15.5015,7.07925 -30.9213,14.37996 -46.375,21.5625 -38.0268,17.95452 -75.9206,36.13795 -113.7813,54.4375 -4.0167,1.52005 -8.0451,3.04423 -12.0625,4.5625 0.3917,0.93094 0.7955,1.84985 1.1875,2.78125 5.2295,-2.53176 10.4559,-5.06599 15.6875,-7.59375 51.6707,-19.46609 103.2578,-39.03424 154.75,-58.96875 43.9312,-17.1079 87.8804,-34.26329 131.2812,-52.6875 l -4.5,-1.03125 c -42.8946,18.71962 -86.4232,35.80766 -129.9687,52.9375 -45.3461,17.71536 -90.8261,35.13761 -136.3437,52.40625 32.1694,-15.50781 64.395,-30.93654 96.6874,-46.1875 15.4522,-7.18165 30.8436,-14.45393 46.3438,-21.53125 72.8716,-33.27282 146.813,-64.14924 220.7188,-95.03125 5.9604,-2.49329 11.9147,-4.97561 17.875,-7.46875 -0.9442,-0.39416 -1.9001,-0.79606 -2.8438,-1.1875 z m -311.4375,7.0625 c -26.4335,10.95429 -52.8891,21.90994 -79.3437,32.8125 8.9208,-3.9051 17.868,-7.75549 26.8437,-11.53125 17.4026,-7.3176 34.9159,-14.40775 52.5,-21.28125 z m 309.2813,17.21875 c -1.2981,0.51547 -2.6089,1.023 -3.9063,1.53125 -17.1897,6.86335 -34.2833,13.91404 -51.3437,21.09375 -17.0603,7.17966 -34.0833,14.50948 -51.0626,21.875 -18.8091,8.28459 -37.5411,16.71214 -56.25,25.21875 -40.4477,15.78685 -80.4858,32.65011 -119.875,50.9375 -32.6007,15.13579 -46.0793,22.16978 -73.8124,36.34375 -6.0997,2.68609 -11.5624,5.08898 -19.1563,8.4375 -8.6421,3.78182 -17.289,7.57658 -25.9375,11.34375 0.1982,0.471 0.4256,0.93585 0.625,1.40625 7.9847,-3.46849 15.9576,-6.95805 23.9375,-10.4375 -7.7074,4.1404 -15.3861,8.29755 -23.0937,12.4375 0.2789,0.66306 0.5647,1.33705 0.8437,2 11.9166,-6.43092 23.8021,-12.85038 35.7187,-19.28125 5.2999,-2.70894 9.9684,-5.11319 14.375,-7.375 30.7575,-13.49761 47.1072,-20.66566 86.4063,-38.28125 35.8902,-16.08764 71.6389,-32.5025 107.5,-48.65625 23.1299,-8.96862 46.3775,-17.59471 69.75,-25.90625 7.4492,-2.60775 14.8938,-5.2077 22.3437,-7.8125 -24.1587,11.65587 -48.4357,22.98928 -72.75,34.28125 -86.9666,39.52705 -174.7633,77.25229 -262.6874,114.59375 0.1859,0.44196 0.3742,0.87163 0.5624,1.3125 88.7184,-37.5999 177.3518,-75.53019 265.1563,-115.21875 29.2564,-13.5155 58.5016,-27.09244 87.5,-41.1875 13.2204,-4.60851 26.4158,-9.19501 39.6563,-13.75 -12.3639,5.38902 -24.6994,10.78803 -37.0313,16.25 -33.0696,14.64697 -46.0231,20.51964 -80,35.84375 -75.2032,34.27935 -150.5905,68.2191 -226.4063,101.125 -16.0976,6.08956 -32.1922,12.24185 -48.25,18.4375 0.198,0.47065 0.3958,0.93571 0.5938,1.40625 5.3284,-2.05477 10.6673,-4.14433 16,-6.1875 -5.2477,2.25299 -10.498,4.47613 -15.75,6.71875 0.1782,0.42364 0.3809,0.82793 0.5625,1.25 15.3131,-6.51832 30.6303,-13.0526 45.9063,-19.65625 9.0444,-3.41915 18.0663,-6.80648 27.125,-10.1875 -17.2167,7.45374 -34.1929,14.82833 -43.4688,18.84375 -2.4714,1.07659 -4.9339,2.14446 -7.4062,3.21875 -7.3148,2.76612 -14.6532,5.51894 -21.9688,8.28125 0.324,0.76999 0.6704,1.51404 1,2.28125 7.2895,-3.14604 14.5873,-6.28766 21.875,-9.4375 87.0921,-32.91746 174.1355,-66.04078 260.875,-99.875 19.4069,-6.9254 38.7666,-13.89208 58.0938,-21.03125 9.6892,-3.57914 19.3387,-7.28431 29,-10.9375 2.7127,-1.07167 5.4396,-2.14626 8.1562,-3.21875 0.3493,-0.95127 0.7148,-1.88974 1.0625,-2.84375 -4.3125,1.72343 -8.6304,3.43506 -12.9375,5.15625 -2.1482,0.82126 -4.322,1.6741 -6.4688,2.5 6.4936,-2.60678 12.9791,-5.23044 19.4688,-7.84375 0.2834,-0.77805 0.5614,-1.56388 0.8438,-2.34375 -17.7388,7.20965 -35.4827,14.38478 -53.25,21.53125 -12.3404,4.88597 -24.7082,9.7433 -37.0626,14.59375 -23.1497,8.34404 -46.3411,16.57341 -69.4687,24.96875 -44.6894,16.22207 -53.9664,19.70626 -97.875,35.875 17.9779,-7.77681 34.5625,-14.92949 45.375,-19.5625 19.2616,-8.25352 38.5585,-16.39621 57.8437,-24.59375 53.1156,-22.28843 106.2463,-44.52194 159.375,-66.78125 0.3126,-0.89459 0.6262,-1.79053 0.9376,-2.6875 -54.3401,22.96758 -108.6777,45.90738 -163.0313,68.84375 -19.2289,8.21086 -38.481,16.36148 -57.6875,24.625 -13.6719,5.88197 -40.6641,17.59591 -67.0625,29.0625 -8.4922,3.13339 -16.9904,6.30045 -25.4687,9.46875 67.7488,-29.53102 135.1788,-59.7914 202.5,-90.28125 35.0027,-15.67182 46.4152,-20.86523 80.4062,-35.78125 11.0526,-4.85023 22.1627,-9.62929 33.25,-14.40625 0.547,-1.60952 1.1132,-3.22659 1.6562,-4.84375 -9.5127,3.28244 -19.0274,6.56114 -28.5312,9.875 10.1373,-4.99529 20.254,-10.06257 30.3125,-15.21875 0.3656,-1.103 0.7299,-2.20595 1.0937,-3.3125 -16.1473,8.41243 -32.4215,16.59957 -48.7812,24.59375 -12.6954,4.44376 -25.4026,8.89001 -38.0938,13.34375 -13.5196,4.81681 -26.9928,9.75623 -40.4374,14.78125 8.6306,-3.83619 17.28,-7.62985 25.9374,-11.40625 10.6747,-4.58141 21.3601,-9.13839 32.0626,-13.65625 23.1315,-9.7644 46.329,-19.36963 69.6562,-28.65625 0.3304,-1.00702 0.6398,-2.02128 0.9688,-3.03125 z m -236.25,9.6875 c -9.9945,5.4398 -20.2593,10.3377 -30.5313,15.25 -40.4072,18.5704 -81.2874,36.01443 -122.3437,53.09375 49.1686,-21.44254 98.1297,-43.34531 146.9374,-65.59375 1.9162,-0.88496 3.9842,-1.84881 5.9376,-2.75 z m 63.7812,4.71875 c -18.7404,7.9212 -37.4798,15.8253 -56.2188,23.75 -2.2964,0.9664 -4.5797,1.93635 -6.875,2.90625 14.1563,-6.32925 28.2968,-12.64368 42.4688,-18.9375 0.8041,-0.35735 1.6023,-0.73645 2.4062,-1.09375 6.0662,-2.22471 12.1471,-4.41299 18.2188,-6.625 z m -84.5,18.65625 c -6.9586,2.71542 -16.0113,6.20243 -43.3438,16.8125 -30.3266,11.47 -46.161,17.51501 -67.0937,25.25 3.8519,-1.69682 7.6881,-3.40895 11.5313,-5.125 32.9852,-12.23601 65.9952,-24.5052 98.9062,-36.9375 z m -58.6562,16.21875 c -8.8837,4.24759 -17.8123,8.40058 -26.8126,12.40625 -6.8809,3.074 -13.7445,6.17535 -20.625,9.25 -11.4466,4.25107 -22.8947,8.47521 -34.3437,12.71875 27.3381,-11.28516 54.6259,-22.65969 81.7813,-34.375 z m 296.375,5.875 c -41.7192,18.06618 -83.7446,35.3719 -125.9063,52.375 -14.1097,5.52172 -28.1996,11.12979 -42.3437,16.5625 -10.9468,4.20474 -84.4374,31.80325 -94.4376,35.59375 -36.3212,13.76739 -72.5312,27.79465 -108.7187,41.90625 0.21,0.49899 0.4036,1.00609 0.625,1.5 36.9337,-14.39009 73.8925,-28.69389 110.9687,-42.71875 2.8674,-1.08452 90.5314,-33.9861 94.6563,-35.5625 14.1965,-5.42562 28.367,-11.02131 42.5313,-16.53125 40.587,-16.22789 81.0016,-32.76057 121.3124,-49.65625 0.4355,-1.1536 0.8795,-2.3111 1.3126,-3.46875 z m -3.9376,10.375 c -24.4175,11.51074 -49.7724,23.24425 -73.75,34.375 -70.6752,32.38334 -141.7035,63.98219 -213.2187,94.46875 -19.3305,7.15919 -38.6625,14.33484 -57.9687,21.5625 -4.7219,1.6166 -9.4643,3.23145 -14.1876,4.84375 0.2859,0.64727 0.6196,1.29141 0.9063,1.9375 5.9594,-2.2462 11.9105,-4.51758 17.875,-6.75 3.5029,-1.20152 6.9669,-2.38948 10.4687,-3.59375 -9.2914,3.83395 -18.5558,7.65729 -27.8437,11.5 0.2571,0.57895 0.4931,1.17163 0.75,1.75 19.624,-8.10966 39.2315,-16.1874 58.875,-24.25 15.6552,-5.44229 31.2916,-10.94224 46.9063,-16.5 -34.7375,14.78679 -69.5766,29.2644 -104.375,43.90625 0.2689,0.60369 0.5438,1.17825 0.8124,1.78125 45.1239,-18.97459 90.3716,-37.65724 135.3126,-57.0625 37.3371,-13.52904 51.9417,-19.21671 93.2812,-34.8125 61.3997,-23.74054 31.5293,-12.07423 89.6875,-35 L 2076,438.8125 c 9.2122,-3.53316 18.4277,-7.11648 27.625,-10.6875 0.3298,-0.79663 0.6403,-1.60764 0.9688,-2.40625 -50.1727,19.57377 -100.535,38.59329 -151,57.40625 22.2272,-10.05125 44.0827,-20.88938 65.8437,-31.90625 1.2149,-0.54919 2.4113,-1.07356 3.625,-1.625 11.3276,-5.36715 14.6108,-6.80093 25.1563,-12.28125 5.1191,-2.66039 10.6702,-5.71598 15.6874,-8.65625 1.2572,-0.73676 2.4557,-1.64376 3.75,-2.3125 1.1334,-0.58544 2.3529,-0.94845 3.5313,-1.4375 l -2.1563,-0.53125 c 14.7553,-6.80735 29.7677,-13.75396 44.3438,-20.5625 0.3495,-0.90233 0.6833,-1.81392 1.0312,-2.71875 z M 1943,419.875 c -23.5867,10.79377 -47.1636,21.62421 -70.8125,32.28125 -26.0555,11.74167 -41.6494,18.70021 -58.1563,26 12.5234,-6.30529 24.9018,-12.30721 44.0626,-21.21875 21.7816,-10.1305 43.7687,-19.84388 65.9062,-29.15625 6.319,-2.65902 12.6551,-5.30955 19,-7.90625 z m 106.5,13.53125 c -9.9945,5.4398 -20.2281,10.33781 -30.5,15.25 -40.4071,18.57041 -81.3186,36.01443 -122.375,53.09375 49.1685,-21.44254 98.1298,-43.34531 146.9375,-65.59375 1.9161,-0.88496 3.9841,-1.84883 5.9375,-2.75 z m 51.3125,1.46875 c -3.7075,1.49148 -6.3344,2.57303 -14.2187,5.75 -78.7382,31.79341 -158.1751,61.84583 -237.25,92.78125 -40.964,16.02579 -61.9511,24.36703 -88.6563,35.03125 0.3121,0.6966 0.5946,1.39819 0.9063,2.09375 95.6828,-36.19122 191.367,-72.42533 287.0937,-108.5 7.405,-2.76801 14.7839,-5.5415 22.1875,-8.3125 -12.2962,5.50515 -24.5788,11.02649 -36.875,16.53125 -13.8949,6.29095 -27.7941,12.60546 -41.6562,18.96875 -74.8607,31.66714 -149.7276,63.30778 -224.8126,94.4375 0.2303,0.50536 0.4576,1.02658 0.6876,1.53125 60.9134,-25.32875 121.6796,-50.98698 182.4374,-76.6875 -41.6141,19.36866 -83.0775,39.09014 -124.375,59.125 -18.5783,7.55617 -37.1717,15.05201 -55.7812,22.53125 0.187,0.40909 0.3756,0.81011 0.5625,1.21875 12.357,-4.95924 24.718,-9.94771 37.0625,-14.9375 -7.9539,3.88226 -15.9023,7.81148 -23.8438,11.71875 -4.1092,1.73001 -8.2321,3.43154 -12.3437,5.15625 0.3397,0.73951 0.6923,1.4497 1.0313,2.1875 3.7437,-1.85314 7.4725,-3.71496 11.2187,-5.5625 24.7615,-10.48336 49.5118,-21.01646 74.2187,-31.625 36.7334,-15.84037 73.4689,-31.74345 110.1563,-47.6875 40.3205,-16.62376 80.6339,-33.24328 120.9375,-49.90625 0.3573,-0.78632 0.7068,-1.58671 1.0625,-2.375 -14.9943,6.24289 -29.9963,12.46767 -45,18.6875 15.8922,-6.94218 31.7859,-13.81259 45.5,-19.75 0.3779,-0.84019 0.7488,-1.68881 1.125,-2.53125 -25.0795,10.88903 -63.2027,27.59699 -82.5625,36.0625 -16.7485,7.32364 -33.4878,14.64596 -50.25,21.9375 -13.743,5.69087 -27.5133,11.3572 -41.25,17.0625 -22.957,9.5532 -45.9226,19.02695 -68.9375,28.4375 48.6711,-23.4508 97.5673,-46.38165 146.6875,-68.875 21.224,-8.98259 42.4278,-17.96658 63.6562,-26.9375 11.9808,-5.06227 23.9845,-10.12758 35.9688,-15.1875 0.2919,-0.66788 0.5842,-1.33071 0.875,-2 -13.0969,5.53159 -26.1856,11.05624 -39.2812,16.59375 -2.2967,0.96645 -4.6113,1.96769 -6.9063,2.9375 14.1564,-6.32925 28.3281,-12.67498 42.5,-18.96875 0.8041,-0.35735 1.6023,-0.7052 2.4063,-1.0625 0.5931,-0.21752 1.1874,-0.43931 1.7812,-0.65625 0.3707,-0.8559 0.756,-1.70428 1.125,-2.5625 -5.1972,1.91489 -10.4077,3.84675 -15.5938,5.78125 -12.3533,4.60794 -24.6618,9.28824 -37,13.9375 -82.4463,31.26635 -164.893,62.5885 -247.3437,93.84375 14.1814,-5.61356 29.8384,-11.78036 53.75,-21.125 79.1775,-30.94234 158.6861,-60.97641 237.5625,-92.6875 6.0163,-2.41291 7.8797,-3.15775 10.5312,-4.21875 0.3075,-0.72429 0.6,-1.46156 0.9063,-2.1875 z m -128.4687,3 c -59.8004,23.19719 -119.7069,46.08519 -179.6876,68.8125 12.6259,-5.46729 28.9882,-12.61266 47.3438,-20.5625 8.4586,-3.1166 16.9643,-6.2031 25.4375,-9.28125 47.3344,-17.35312 54.432,-20.03876 100.8125,-36.78125 2.034,-0.7339 4.059,-1.45551 6.0938,-2.1875 z m 56.4374,18.90625 c -6.9588,2.71552 -16.0116,6.17128 -43.3437,16.78125 -30.3267,11.47005 -46.1299,17.51505 -67.0625,25.25 3.8515,-1.69667 7.7189,-3.40864 11.5625,-5.125 32.985,-12.23591 65.9326,-24.47401 98.8437,-36.90625 z m -58.6562,16.1875 c -8.884,4.24774 -17.7806,8.40033 -26.7812,12.40625 -6.8809,3.07379 -13.7757,6.17536 -20.6563,9.25 -11.4464,4.25099 -22.8946,8.50641 -34.3437,12.75 27.3382,-11.2852 54.6258,-22.69094 81.7812,-34.40625 z m 106.9375,14.09375 c -30.4477,12.87982 -60.9157,25.68933 -91.5,38.25 -41.9876,17.2441 -57.9601,23.51096 -100.6563,40.5625 -18.2008,7.10861 -36.3597,14.32089 -54.5937,21.34375 -15.3429,5.90937 -33.5953,12.79823 -52.0313,19.75 0.2129,0.45751 0.4126,0.9183 0.625,1.375 19.1085,-7.18877 38.0904,-14.36183 54.0626,-20.5 18.2616,-7.01825 36.4582,-14.17863 54.6874,-21.28125 44.1499,-17.57639 57.5212,-22.78659 100.875,-40.53125 29.134,-11.92457 58.1624,-24.08745 87.1876,-36.28125 0.4444,-0.89722 0.9016,-1.78766 1.3437,-2.6875 z m -1.8125,3.625 c -8.6811,3.88756 -17.3512,7.80028 -26,11.75 -15.5014,7.07915 -30.9211,14.37996 -46.375,21.5625 -38.0265,17.95431 -75.9201,36.10671 -113.7812,54.40625 -35.1677,13.30802 -70.3697,26.57184 -105.5626,39.8125 0.1858,0.39322 0.4083,0.79498 0.5938,1.1875 30.1075,-11.29549 60.1823,-22.55465 90.2812,-33.875 -28.8381,13.96442 -57.6307,27.97121 -86.4374,42 0.2704,0.56849 0.5103,1.15235 0.7812,1.71875 35.0257,-17.06441 70.0749,-34.11265 105.1562,-51.0625 51.6705,-19.46599 103.2892,-39.06554 154.7813,-59 4.9665,-1.93409 9.943,-3.87286 14.9063,-5.8125 0.4566,-0.85735 0.8894,-1.73397 1.3437,-2.59375 -6.4873,2.55286 -12.9826,5.10477 -19.4687,7.65625 -45.3463,17.71536 -90.7949,35.10636 -136.3126,52.375 32.1695,-15.50781 64.3638,-30.90528 96.6563,-46.15625 15.452,-7.18165 30.875,-14.45408 46.375,-21.53125 7.253,-3.31174 14.5087,-6.60701 21.7813,-9.875 0.4278,-0.85463 0.8555,-1.70548 1.2812,-2.5625 z m -178.0938,15.15625 c -3.5916,1.56019 -7.1853,3.13639 -10.7812,4.6875 -1.6917,0.61154 -3.3373,1.19845 -5.125,1.84375 -12.7562,4.60392 -25.5539,9.14938 -38.3438,13.65625 0.828,-0.33489 1.6737,-0.66175 2.5,-1 1.1067,-0.41004 2.2061,-0.80871 3.3126,-1.21875 16.1426,-5.98305 32.2926,-11.99096 48.4374,-17.96875 z m 161.1876,17.1875 c -12.6503,5.78111 -25.2914,11.5683 -37.9688,17.28125 -48.4194,21.81979 -60.5375,27.01975 -110.0312,48.84375 -38.8032,16.98071 -77.6787,33.77843 -116.5938,50.5 0.2159,0.44549 0.4096,0.93078 0.625,1.375 39.5574,-16.96879 79.0791,-34.06776 118.5312,-51.28125 49.618,-21.79879 61.7806,-27.04425 110.3438,-48.8125 2.0164,-0.90411 4.0159,-1.78113 6.0312,-2.6875 -14.2968,6.86711 -28.6006,13.74533 -42.9062,20.59375 -63.7334,27.88551 -127.2791,56.12615 -190.4688,85.21875 0.4854,0.99869 0.9533,1.97719 1.4376,2.96875 3.9806,-1.65877 7.9885,-3.31013 11.9687,-4.96875 2.6836,-1.14281 5.3744,-2.27506 8.0625,-3.40625 -6.5477,3.04622 -13.1074,6.08131 -19.6562,9.125 0.2071,0.42452 0.4172,0.85836 0.625,1.28125 15.1057,-7.02346 30.2118,-14.05998 45.3124,-21.09375 3.19,-1.49072 6.3746,-3.00595 9.5626,-4.5 65.3528,-27.64868 130.6757,-55.38155 195.7187,-83.75 0.6392,-1.10435 1.2714,-2.20407 1.9063,-3.3125 -48.5618,21.24608 -97.1705,42.40393 -145.9063,63.25 l -9.9375,4.1875 c 29.6551,-14.00145 59.2546,-28.10963 88.8438,-42.25 17.1469,-7.49862 34.3021,-14.95344 51.4687,-22.40625 6.1133,-2.58941 12.2567,-5.15797 18.375,-7.75 0.4267,-0.75689 0.8566,-1.52245 1.2813,-2.28125 -6.0836,2.57513 -12.1578,5.16214 -18.25,7.71875 -4.4129,1.91664 -8.8382,3.86129 -13.25,5.78125 10.9051,-5.22744 21.8165,-10.48413 32.7187,-15.71875 0.7226,-1.30005 1.4395,-2.60057 2.1563,-3.90625 z M 1878.9062,547.625 c -7.7462,3.3464 -15.5016,6.7205 -23.25,10.0625 -15.0396,6.5301 -30.1285,12.96276 -45.2187,19.375 6.3477,-3.10105 12.7379,-6.19738 19.0937,-9.28125 16.4757,-6.68897 32.9249,-13.40423 49.375,-20.15625 z m 164.8438,0.96875 c -19.025,8.2253 -47.1787,20.4704 -73.5,31.90625 -20.5744,8.90549 -39.8769,17.25765 -50.6875,21.9375 -39.5835,17.2305 -79.234,34.31985 -118.9063,51.34375 0.1968,0.39976 0.3964,0.78939 0.5938,1.1875 43.5226,-18.70491 87.0231,-37.40709 130.5,-56.21875 24.2723,-10.50215 77.4264,-33.57004 110.625,-47.875 0.458,-0.76348 0.9192,-1.51581 1.375,-2.28125 z M 2038.6562,557 c -6.0706,2.38986 -12.1344,4.78596 -18.1874,7.21875 -17.1492,6.8924 -34.2516,13.93249 -51.2813,21.09375 -17.0282,7.16546 -33.9876,14.44578 -50.9375,21.8125 -17.061,7.41485 -34.0438,15.05126 -51.0625,22.5625 -21.3844,9.66187 -42.786,19.27716 -64.1563,28.96875 0.2483,0.49971 0.5027,1.00225 0.75,1.5 20.633,-9.3641 41.2909,-18.6946 61.9376,-28.03125 17.0203,-7.51555 33.9995,-15.1134 51.0624,-22.53125 33.9834,-14.77379 67.8013,-29.09589 102.1876,-42.90625 6.0476,-2.42888 12.1263,-4.83264 18.1874,-7.21875 0.5061,-0.82036 0.9966,-1.64612 1.5,-2.46875 z m -8.125,13 c -37.2663,17.99744 -74.445,36.1976 -111.5312,54.5625 -33.2495,16.75891 -66.4359,33.61909 -99.6875,50.375 -2.1729,1.01875 -4.328,2.0736 -6.5,3.09375 0.2581,0.50382 0.5241,0.99871 0.7813,1.5 0.8504,-0.42707 1.6812,-0.85308 2.5312,-1.28125 39.4861,-18.51616 79.1211,-36.77456 119.0938,-54.21875 14.6926,-6.41185 29.4788,-12.60348 44.2187,-18.90625 l 1.5937,-2.625 c -14.7546,6.32405 -29.5732,12.53684 -44.2812,18.96875 -25.0621,10.9602 -49.971,22.20858 -74.8125,33.65625 18.5152,-9.35881 37.0294,-18.7094 55.5625,-28.03125 15.8576,-7.82752 31.7048,-15.7363 47.5938,-23.5 21.154,-10.33637 42.3525,-20.56309 63.5937,-30.71875 0.6169,-0.95698 1.2307,-1.91492 1.8437,-2.875 z m -87.2812,9.4375 c -26.8501,12.78501 -53.73,25.50038 -80.6562,38.125 -8.8905,3.7574 -17.7796,7.50323 -26.6876,11.21875 -10.7528,4.48684 -21.5096,8.93449 -32.2812,13.375 46.3676,-21.30655 92.9299,-42.13574 139.625,-62.71875 z m 71.1875,14.78125 c -25.2126,10.79887 -50.4321,21.598 -75.625,32.4375 -41.6959,17.7062 -83.3349,35.46179 -124.9687,53.3125 0.2944,0.57421 0.5495,1.14835 0.8437,1.71875 53.2144,-22.8445 106.4951,-45.52034 159.8125,-68.125 12.5098,-5.25274 25.0164,-10.501 37.5,-15.8125 0.82,-1.17103 1.6239,-2.35555 2.4375,-3.53125 z m -5.5937,7.96875 c -22.2859,9.67275 -44.6315,19.25194 -66.9376,28.875 -73.3028,31.62375 -5.2688,2.56674 -77.9687,33.5625 -15.9147,6.62909 -31.805,13.32209 -47.6875,20.03125 0.3012,0.58049 0.5753,1.14196 0.875,1.71875 15.0126,-6.34581 30.0533,-12.65999 45.0938,-18.9375 73.2259,-31.2425 12.0757,-5.09089 60.6562,-26.0625 -20.1029,9.49566 -23.1089,10.85874 -51.0312,23.9375 -24.2557,10.73869 -38.6371,17.14466 -53.375,23.6875 0.4043,0.77389 0.816,1.54623 1.2187,2.3125 9.7849,-4.5467 19.5904,-9.07784 29.375,-13.625 13.354,-6.2566 20.2475,-9.49541 27.5313,-12.90625 19.5962,-8.5766 39.1978,-17.21555 58.8124,-25.75 56.9861,-24.79473 56.817,-24.58788 68.125,-29.4375 0.5533,-0.75907 1.1059,-1.52022 1.6563,-2.28125 -14.0389,6.04373 -22.7084,9.67905 -68.5313,29.625 -4.0033,1.74294 -7.9671,3.53361 -11.9687,5.28125 7.468,-3.5228 15.947,-7.55873 31,-14.65625 l 0.2813,-0.46875 c 16.8984,-7.26608 33.8104,-14.53145 50.6874,-21.84375 0.7317,-1.01879 1.4609,-2.04017 2.1876,-3.0625 z m -189.9063,24.125 c -9.1489,2.86769 -18.2881,5.72678 -27.4375,8.59375 l -0.031,0 c 0.3052,0.6352 0.6321,1.3051 0.9374,1.9375 8.2584,-2.5715 16.4904,-5.1479 24.75,-7.71875 l 1.7813,-2.8125 z m 165.7813,8.03125 c -28.8154,12.8052 -57.6435,25.59083 -86.5,38.3125 -23.9763,10.3428 -47.9761,20.61343 -72,30.84375 0.2573,0.47632 0.5252,0.96451 0.7812,1.4375 23.2549,-9.87651 46.475,-19.77465 69.6875,-29.75 28.5398,-12.52335 57.0239,-25.12608 85.5313,-37.71875 0.8349,-1.04171 1.671,-2.07961 2.5,-3.125 z m -8.5,10.5 c -48.7388,21.89043 -97.5405,43.66742 -146.4688,65.125 0.2105,0.38419 0.4144,0.80621 0.625,1.1875 48.0905,-21.12398 96.0506,-42.52365 143.9688,-64.03125 0.6282,-0.75803 1.2501,-1.52127 1.875,-2.28125 z m -7.9688,9.5625 c -17.601,7.62062 -34.7598,14.9501 -54.2812,23.28125 -26.2519,11.20357 -52.5028,22.401 -78.8126,33.46875 -1.3284,0.46952 -2.6402,0.93644 -3.9687,1.40625 0.3064,0.55416 0.601,1.108 0.9063,1.65625 1.4782,-0.62202 2.9281,-1.25298 4.4062,-1.875 14.9526,-5.26327 29.9524,-10.45388 44.9375,-15.625 18.8367,-6.50024 37.727,-12.83721 56.5937,-19.25 4.677,-1.56095 9.3501,-3.11039 14.0313,-4.65625 0.8039,-0.8872 1.6074,-1.76641 2.4063,-2.65625 -5.0062,1.65981 -10.0283,3.32132 -15.0313,5 -18.8901,6.44902 -37.7944,12.84385 -56.6563,19.375 -7.1661,2.4813 -14.3406,4.93666 -21.5,7.4375 34.8789,-14.67701 69.6919,-29.50339 104.4063,-44.5625 0.8568,-0.99768 1.7117,-1.99896 2.5625,-3 z m -17.4062,19.75 c -12.0457,5.64898 -24.0792,11.32499 -36.125,16.96875 -21.9383,10.27845 -49.7107,23.26279 -75.7188,35.34375 0.2591,0.4482 0.5231,0.86929 0.7812,1.3125 25.3735,-11.8123 52.1648,-24.38298 73.5938,-34.4375 11.6502,-5.46625 23.2914,-10.94127 34.9375,-16.40625 0.85,-0.92464 1.6869,-1.85376 2.5313,-2.78125 z m -23.5938,24.8125 c -27.3057,12.70551 -54.6158,25.44749 -81.9062,38.1875 0.2306,0.38034 0.489,0.78071 0.7187,1.15625 26.1898,-12.25774 52.3564,-24.47108 78.5625,-36.6875 0.8824,-0.88032 1.7483,-1.77339 2.625,-2.65625 z m -31.0625,29.6875 c -15.3025,5.47511 -30.5999,10.96255 -45.9063,16.4375 0.3494,0.54979 0.6858,1.08711 1.0313,1.625 13.7281,-4.9081 27.4578,-9.81371 41.1875,-14.71875 1.238,-1.1102 2.4597,-2.22967 3.6875,-3.34375 z M 1868.625,752.625 c -3.4908,1.43018 -6.9789,2.8762 -10.4688,4.3125 0.2844,0.40492 0.5629,0.82431 0.8438,1.21875 1.9582,-0.80716 3.9166,-1.63177 5.875,-2.4375 1.2514,-1.03281 2.5082,-2.05771 3.75,-3.09375 z" transform="matrix(0.8, 0, 0, 0.8, 0, -3.61049e-05)" id="path5392"/>
      <path inkscape:connector-curvature="0" style="fill:url(#radialGradient4781);stroke:none" d="m 1370.6501,184.07497 c -19.3608,0.89468 -39.076,2.48362 -59.2251,4.85 0.8734,13.07658 5.7247,33.28543 13.3501,57.925 24.5496,-10.38707 44.147,-36.28764 45.875,-62.775 z" id="path5767"/>
      <path inkscape:connector-curvature="0" style="fill:url(#radialGradient4783);stroke:none" d="m 1487.0001,549.54998 c -10.5793,0.17902 -21.0609,2.41634 -30.325,6.75 12.0342,22.28853 22.8358,40.21278 31.375,51.45001 16.8363,-13.70491 32.5918,-27.77076 47.3749,-42.25 -12.9865,-10.87148 -30.8436,-16.24751 -48.4249,-15.95001 z" id="path440"/>
      <g id="g158" transform="matrix(0.749026, 0.662541, -0.662541, 0.749026, 1219.88, -119.295)">
        <path inkscape:connector-curvature="0" style="fill:url(#radialGradient4785);stroke:none" d="m 1970.4688,258.4375 c -7.3713,68.60311 55.9489,137.00959 0.9687,158.75 3.1405,4.16016 5.0001,9.29851 5,14.875 -10e-5,13.6879 -11.2646,24.90624 -25,24.90625 -2.641,0 -5.1728,-0.45355 -7.5625,-1.21875 -5.7076,57.42112 35.7026,101.05998 67.5,134.4375 53.8908,-77.10367 95.9568,-173.44797 128.0625,-274.78125 -55.814,-24.39734 -116.2202,-48.01465 -168.9687,-56.96875 z" transform="matrix(0.599221, -0.530033, 0.530033, 0.599221, -834.684, 897.576)" id="path160"/>
      </g>
      <path inkscape:connector-curvature="0" id="path224" d="m 1682.0432,244.06977 -85.249,38.23797 7.7958,28.15031 401.3845,-123.41203 c 22.0961,-2.45522 29.915,8.64739 40.8824,7.97786 l 91.5684,-11.25135 c 9.5565,-2.88535 14.9711,-12.98676 12.0833,-22.54286 l -20.064,-51.61663 c -2.8865,-9.55734 -7.6114,-14.274283 -17.1692,-11.387763 l -94.661,36.215893 c -5.0878,10.87627 -16.0008,15.54082 -23.5549,17.92922 l -313.0163,91.69938 z" style="fill:url(#linearGradient4787);stroke:none"/>
      <path style="fill:url(#radialGradient4789);fill-opacity:1;stroke:#ffffff;stroke-width:1.38093281;stroke-opacity:1" d="m 1541.6859,275.73659 c -9.0114,0 -16.3167,7.25614 -16.3167,16.20708 0,3.13726 0.8967,6.06543 2.4505,8.54682 4.5207,-3.42081 10.1507,-5.45382 16.2569,-5.45382 4.5801,0 8.893,1.14344 12.6708,3.15774 0.8098,-1.92314 1.2551,-4.03577 1.2551,-6.25074 0,-8.95094 -7.3053,-16.20708 -16.3166,-16.20708 z m -27.0151,21.15786 c -8.951,0 -16.2071,7.25614 -16.2071,16.20708 0,8.95095 7.2561,16.2071 16.2071,16.2071 1.1453,0 2.2638,-0.11772 3.342,-0.34368 -0.5907,-2.21913 -0.9065,-4.55284 -0.9065,-6.95799 0,-8.06336 3.5406,-15.29409 9.1495,-20.23643 -2.9424,-3.00815 -7.0447,-4.87608 -11.585,-4.87608 z m 53.6118,0 c -3.3728,0 -6.5084,1.01788 -9.1096,2.75929 7.1659,4.84811 11.8739,13.05001 11.8739,22.35322 0,2.49342 -0.338,4.91009 -0.9712,7.20205 8.1674,-0.8871 14.5236,-7.75865 14.5236,-16.10748 0,-8.95094 -7.3053,-16.20708 -16.3167,-16.20708 z m -49.7369,33.82868 c -4.6705,2.85117 -7.7848,7.97174 -7.7848,13.81635 0,8.95095 7.3053,16.2071 16.3167,16.2071 7.4735,0 13.7764,-4.98983 15.709,-11.7992 -11.2821,-0.5307 -20.7491,-7.99314 -24.2409,-18.22425 z m 50.748,0.8766 c -3.7422,9.83191 -13.0707,16.90595 -24.1064,17.35263 1.533,7.37048 8.1036,12.90988 15.978,12.90988 9.0113,-10e-6 16.3166,-7.25615 16.3166,-16.20709 0,-6.01148 -3.2942,-11.25752 -8.1882,-14.05542 z" id="path5411" inkscape:connector-curvature="0"/>
      <path transform="matrix(0.185793, 0, 0, 0.185793, 1315.2, 224.413)" d="m 1367.7386,525.29413 c 0,75.02367 -60.8187,135.84238 -135.8424,135.84238 -75.0236,0 -135.8423,-60.81871 -135.8423,-135.84238 0,-75.02367 60.8187,-135.84238 135.8423,-135.84238 75.0237,0 135.8424,60.81871 135.8424,135.84238 z" sodipodi:ry="135.84238" sodipodi:rx="135.84238" sodipodi:cy="525.29413" sodipodi:cx="1231.8962" id="path5425" style="fill:url(#radialGradient4791);fill-opacity:1;stroke:none" sodipodi:type="arc"/>
      <path inkscape:connector-curvature="0" style="fill:url(#radialGradient4793);fill-opacity:1;stroke:none" d="m 2647.6875,121.71875 c -1.84,0.031 -3.8536,0.38597 -6.0937,1.0625 l -118.3126,45.28125 c -5.3501,11.43713 -15.8658,17.34297 -24.6874,20.71875 L 2511.125,233.5 c 24.8461,-1.51442 34.3544,11.07994 47.4375,10.28125 l 114.4687,-14.0625 c 11.9457,-3.60669 18.7035,-16.24238 15.0938,-28.1875 l -25.0625,-64.5 c -2.9316,-9.70667 -7.4016,-15.44693 -15.375,-15.3125 z" transform="matrix(0.8, 0, 0, 0.8, 0, -3.61049e-05)" id="path3457"/>
      <g id="g326" transform="matrix(0.670826, 0.741615, -0.741615, 0.670826, 1773.24, -282.435)">
        <path inkscape:connector-curvature="0" id="path328" d="m 372.298,373.05 c 2.879,1.335 4.565,3.788 3.764,5.474 -0.8,1.687 -3.786,1.971 -6.664,0.635 -2.879,-1.335 -4.565,-3.788 -3.764,-5.474 0.8,-1.686 3.786,-1.971 6.664,-0.635 z" style="fill:#ffffff;stroke:none"/>
        <path inkscape:connector-curvature="0" id="path330" d="m 386.801,342.503 c 2.879,1.335 4.565,3.788 3.764,5.474 -0.8,1.686 -3.786,1.971 -6.664,0.635 -2.879,-1.335 -4.565,-3.788 -3.764,-5.474 0.8,-1.686 3.786,-1.971 6.664,-0.635 z" style="fill:#ffffff;stroke:none"/>
        <path inkscape:connector-curvature="0" id="path332" d="m 411.169,291.181 c 2.879,1.336 4.565,3.788 3.765,5.475 -0.801,1.686 -3.787,1.97 -6.665,0.635 -2.879,-1.336 -4.565,-3.789 -3.764,-5.475 0.8,-1.686 3.786,-1.971 6.664,-0.635 z" style="fill:#ffffff;stroke:none"/>
        <path inkscape:connector-curvature="0" id="path334" d="m 429.154,253.302 c 2.878,1.335 4.564,3.788 3.764,5.474 -0.801,1.686 -3.787,1.971 -6.665,0.635 -2.878,-1.335 -4.565,-3.788 -3.764,-5.474 0.8,-1.686 3.786,-1.971 6.665,-0.635 z" style="fill:#ffffff;stroke:none"/>
        <path inkscape:connector-curvature="0" id="path336" d="m 462.223,183.653 c 2.878,1.336 4.564,3.789 3.764,5.475 -0.801,1.686 -3.787,1.971 -6.665,0.635 -2.878,-1.336 -4.565,-3.789 -3.764,-5.475 0.801,-1.686 3.787,-1.97 6.665,-0.635 z" style="fill:#ffffff;stroke:none"/>
      </g>
      <g id="g338" transform="matrix(0.670826, 0.741615, -0.741615, 0.670826, 1773.24, -282.435)">
        <path inkscape:connector-curvature="0" id="path340" d="m 467.669,136.059 -2.745,5.436 31.978,14.84 2.562,-5.521 -31.795,-14.755 z" style="fill:#ffffff;stroke:none"/>
        <g id="g342">
          <path inkscape:connector-curvature="0" id="path344" d="m 467.653,136.095 -2.677,5.289 31.977,14.84 2.494,-5.374 -31.794,-14.755 z" style="fill:#f9f9f9;stroke:none"/>
          <path inkscape:connector-curvature="0" id="path346" d="m 467.636,136.13 -2.609,5.144 31.978,14.84 2.426,-5.229 -31.795,-14.755 z" style="fill:#f4f4f4;stroke:none"/>
          <path inkscape:connector-curvature="0" id="path348" d="m 467.62,136.166 -2.542,4.997 31.978,14.84 2.358,-5.082 -31.794,-14.755 z" style="fill:#efefef;stroke:none"/>
          <path inkscape:connector-curvature="0" id="path350" d="m 467.603,136.201 -2.474,4.852 31.978,14.84 2.291,-4.936 -31.795,-14.756 z" style="fill:#eaeaea;stroke:none"/>
          <path inkscape:connector-curvature="0" id="path352" d="m 467.587,136.237 -2.406,4.705 31.977,14.841 2.223,-4.791 -31.794,-14.755 z" style="fill:#e5e5e5;stroke:none"/>
          <path inkscape:connector-curvature="0" id="path354" d="m 467.57,136.273 -2.338,4.559 31.978,14.84 2.155,-4.644 -31.795,-14.755 z" style="fill:#e0e0e0;stroke:none"/>
          <path inkscape:connector-curvature="0" id="path356" d="m 467.554,136.308 -2.271,4.413 31.978,14.841 2.087,-4.499 -31.794,-14.755 z" style="fill:#dbdbdb;stroke:none"/>
          <path inkscape:connector-curvature="0" id="path358" d="m 467.537,136.344 -2.203,4.267 31.978,14.84 2.019,-4.352 -31.794,-14.755 z" style="fill:#d6d6d6;stroke:none"/>
          <path inkscape:connector-curvature="0" id="path360" d="m 467.52,136.379 -2.134,4.121 31.977,14.841 1.952,-4.207 -31.795,-14.755 z" style="fill:#d1d1d1;stroke:none"/>
          <path inkscape:connector-curvature="0" id="path362" d="m 467.504,136.415 -2.067,3.975 31.978,14.84 1.883,-4.06 -31.794,-14.755 z" style="fill:#cccccc;stroke:none"/>
          <path inkscape:connector-curvature="0" id="path364" d="m 467.487,136.451 -1.999,3.828 31.978,14.841 1.816,-3.914 -31.795,-14.755 z" style="fill:#c6c6c6;stroke:none"/>
          <path inkscape:connector-curvature="0" id="path366" d="m 467.471,136.486 -1.932,3.683 31.978,14.84 1.748,-3.768 -31.794,-14.755 z" style="fill:#c1c1c1;stroke:none"/>
          <path inkscape:connector-curvature="0" id="path368" d="m 467.454,136.522 -1.863,3.537 31.977,14.84 1.681,-3.622 -31.795,-14.755 z" style="fill:#bcbcbc;stroke:none"/>
          <path inkscape:connector-curvature="0" id="path370" d="m 467.438,136.557 -1.796,3.391 31.978,14.84 1.612,-3.476 -31.794,-14.755 z" style="fill:#b7b7b7;stroke:none"/>
          <path inkscape:connector-curvature="0" id="path372" d="m 467.421,136.593 -1.728,3.245 31.978,14.84 1.545,-3.33 -31.795,-14.755 z" style="fill:#b2b2b2;stroke:none"/>
          <path inkscape:connector-curvature="0" id="path374" d="m 467.404,136.629 -1.66,3.098 31.978,14.84 1.477,-3.183 -31.795,-14.755 z" style="fill:#adadad;stroke:none"/>
          <path inkscape:connector-curvature="0" id="path376" d="m 467.388,136.664 -1.592,2.953 31.977,14.84 1.409,-3.038 -31.794,-14.755 z" style="fill:#a8a8a8;stroke:none"/>
          <path inkscape:connector-curvature="0" id="path378" d="m 467.371,136.7 -1.524,2.806 31.978,14.84 1.341,-2.891 -31.795,-14.755 z" style="fill:#a3a3a3;stroke:none"/>
          <path inkscape:connector-curvature="0" id="path380" d="m 467.355,136.735 -1.457,2.661 31.978,14.84 1.273,-2.746 -31.794,-14.755 z" style="fill:#9e9e9e;stroke:none"/>
          <path inkscape:connector-curvature="0" id="path382" d="m 467.338,136.771 -1.389,2.514 31.978,14.84 1.206,-2.599 -31.795,-14.755 z" style="fill:#999999;stroke:none"/>
          <path inkscape:connector-curvature="0" id="path384" d="m 467.322,136.807 -1.321,2.368 31.977,14.84 1.138,-2.453 -31.794,-14.755 z" style="fill:#939393;stroke:none"/>
          <path inkscape:connector-curvature="0" id="path386" d="m 467.305,136.842 -1.253,2.222 31.978,14.84 1.07,-2.307 -31.795,-14.755 z" style="fill:#8e8e8e;stroke:none"/>
          <path inkscape:connector-curvature="0" id="path388" d="m 467.289,136.878 -1.186,2.076 31.978,14.84 1.002,-2.161 -31.794,-14.755 z" style="fill:#898989;stroke:none"/>
          <path inkscape:connector-curvature="0" id="path390" d="m 467.272,136.913 -1.118,1.93 31.978,14.84 0.935,-2.015 -31.795,-14.755 z" style="fill:#848484;stroke:none"/>
          <path inkscape:connector-curvature="0" id="path392" d="m 467.255,136.949 -1.049,1.784 31.977,14.84 0.867,-1.869 -31.795,-14.755 z" style="fill:#7f7f7f;stroke:none"/>
          <path inkscape:connector-curvature="0" id="path394" d="m 467.239,136.985 -0.982,1.637 31.978,14.84 0.798,-1.722 -31.794,-14.755 z" style="fill:#7a7a7a;stroke:none"/>
          <path inkscape:connector-curvature="0" id="path396" d="m 467.222,137.02 -0.914,1.492 31.978,14.84 0.731,-1.577 -31.795,-14.755 z" style="fill:#757575;stroke:none"/>
          <path inkscape:connector-curvature="0" id="path398" d="m 467.206,137.056 -0.847,1.345 31.978,14.841 0.663,-1.431 -31.794,-14.755 z" style="fill:#707070;stroke:none"/>
          <path inkscape:connector-curvature="0" id="path400" d="m 467.189,137.091 -0.778,1.2 31.977,14.84 0.596,-1.285 -31.795,-14.755 z" style="fill:#6b6b6b;stroke:none"/>
        </g>
        <path inkscape:connector-curvature="0" id="path402" d="m 467.173,137.127 -0.711,1.053 31.978,14.841 0.527,-1.139 -31.794,-14.755 z" style="fill:#666666;stroke:none"/>
      </g>
      <path inkscape:connector-curvature="0" id="path404" d="m 1748.9435,225.69715 -5.8138,1.80428 11.4233,36.81687 5.8131,-1.80362 -11.4226,-36.81753 z" style="fill:#ffffff;stroke:none"/>
      <path inkscape:connector-curvature="0" id="path406" d="m 1732.5161,230.79409 -5.8132,1.80361 11.4226,36.81754 5.8132,-1.80362 -11.4226,-36.81753 z" style="fill:#ffffff;stroke:none"/>
      <path inkscape:connector-curvature="0" id="path408" d="m 1718.9215,235.01137 -5.8131,1.80361 11.4226,36.81754 5.8131,-1.80362 -11.4226,-36.81753 z" style="fill:#ffffff;stroke:none"/>
      <path inkscape:connector-curvature="0" id="path410" d="m 1705.3276,239.22939 -5.8139,1.80429 11.424,36.8176 5.8131,-1.80361 -11.4232,-36.81828 z" style="fill:#ffffff;stroke:none"/>
      <path inkscape:connector-curvature="0" id="path412" d="m 1693.9991,242.74393 -5.8131,1.80361 11.4226,36.81754 5.8131,-1.80362 -11.4226,-36.81753 z" style="fill:#ffffff;stroke:none"/>
      <path inkscape:connector-curvature="0" id="path414" d="m 1681.5387,246.60954 -5.8139,1.80428 11.4234,36.81687 5.8131,-1.80362 -11.4226,-36.81753 z" style="fill:#ffffff;stroke:none"/>
      <path inkscape:connector-curvature="0" id="path416" d="m 1955.3827,164.56858 -5.8388,1.72444 10.6225,34.2322 5.8124,-1.80294 -10.5961,-34.1537 z" style="fill:#ffffff;stroke:none"/>
      <path inkscape:connector-curvature="0" id="path418" d="m 1928.0783,172.63275 -5.8388,1.72444 10.7377,34.60401 5.8131,-1.80362 -10.712,-34.52483 z" style="fill:#ffffff;stroke:none"/>
      <path inkscape:connector-curvature="0" id="path420" d="m 1901.3439,180.52795 -5.8382,1.72377 10.8498,34.96787 5.8131,-1.80362 -10.8247,-34.88802 z" style="fill:#ffffff;stroke:none"/>
      <path inkscape:connector-curvature="0" id="path422" d="m 1880.8657,186.57591 -5.8368,1.72526 10.9336,35.24535 5.8145,-1.80213 -10.9113,-35.16848 z" style="fill:#ffffff;stroke:none"/>
      <path inkscape:connector-curvature="0" id="path424" d="m 1858.6816,193.12742 -5.8368,1.72526 11.0296,35.54822 5.8131,-1.80361 -11.0059,-35.46987 z" style="fill:#ffffff;stroke:none"/>
      <path inkscape:connector-curvature="0" id="path426" d="m 1838.2048,199.17686 -5.8388,1.72445 11.1154,35.82652 5.8131,-1.80361 -11.0897,-35.74736 z" style="fill:#ffffff;stroke:none"/>
      <path inkscape:connector-curvature="0" id="path428" d="m 1817.1569,205.39238 -5.8389,1.72444 11.2052,36.1121 5.8131,-1.80361 -11.1794,-36.03293 z" style="fill:#ffffff;stroke:none"/>
      <path inkscape:connector-curvature="0" id="path430" d="m 1798.9547,210.76782 -5.8375,1.72452 11.2798,36.36151 5.8131,-1.80362 -11.2554,-36.28241 z" style="fill:#ffffff;stroke:none"/>
      <path inkscape:connector-curvature="0" id="path432" d="m 1781.8893,215.80801 -5.8381,1.72378 11.3545,36.59464 5.8131,-1.80362 -11.3295,-36.5148 z" style="fill:#ffffff;stroke:none"/>
      <path inkscape:connector-curvature="0" id="path434" d="m 1763.118,221.35175 -3.5494,1.04907 -2.2798,0.70702 11.4248,36.81693 5.8131,-1.80361 -11.4087,-36.76941 z" style="fill:#ffffff;stroke:none"/>
      <path inkscape:connector-curvature="0" id="path604" d="m 1630.2173,269.32981 -5.5841,2.54575 9.2699,29.87608 5.8131,-1.80362 -9.4989,-30.61821 z" style="fill:#ffffff;stroke:none"/>
      <path inkscape:connector-curvature="0" id="path606" d="m 1639.4655,265.11347 -5.5848,2.545 9.6514,31.10588 5.8132,-1.80362 -9.8798,-31.84726 z" style="fill:#ffffff;stroke:none"/>
      <path style="fill:url(#radialGradient4795);fill-opacity:1;stroke:none" d="m 2019.6753,114.20546 c -3.2794,0.96426 -4.8117,5.57423 -3.4236,10.29523 0.3604,1.22556 0.8817,2.3366 1.5142,3.29548 l 10.8711,-3.19638 c 0.013,-1.14867 -0.1502,-2.36503 -0.5105,-3.59059 -1.3881,-4.721 -5.1717,-7.76799 -8.4512,-6.80374 z" id="path3604" inkscape:connector-curvature="0"/>
      <path inkscape:connector-curvature="0" id="path3609" d="m 2046.999,104.26956 c -3.2794,0.96426 -4.8117,5.57423 -3.4236,10.29523 0.3604,1.22556 0.8817,2.3366 1.5142,3.29548 l 10.8711,-3.19638 c 0.013,-1.14867 -0.1502,-2.36503 -0.5105,-3.59059 -1.3881,-4.721 -5.1717,-7.76799 -8.4512,-6.80374 z" style="fill:url(#radialGradient4797);fill-opacity:1;stroke:none"/>
      <path style="fill:url(#radialGradient4799);fill-opacity:1;stroke:none" d="m 2079.0277,91.84969 c -3.2794,0.964256 -4.8117,5.574226 -3.4236,10.29523 0.3604,1.22556 0.8817,2.3366 1.5142,3.29548 l 10.8711,-3.19638 c 0.013,-1.14867 -0.1502,-2.365034 -0.5105,-3.590594 -1.3881,-4.721 -5.1717,-7.767986 -8.4512,-6.803736 z" id="path3611" inkscape:connector-curvature="0"/>
      <path inkscape:connector-curvature="0" id="path444" d="m 1468.7478,303.93758 5.1567,-1.64218 25.0724,78.75821 -5.156,1.64171 -25.0731,-78.75774 z" style="fill:#330000;stroke:none"/>
      <g id="g446" transform="matrix(0.47333, 0.515595, -0.515595, 0.47333, 1687.22, -88.0198)">
        <path inkscape:connector-curvature="0" id="path448" d="m 210.278,609.656 0.888,-1.913 92.453,42.903 -0.888,1.913 -92.453,-42.903 z" style="fill:#ffffff;stroke:none"/>
        <g id="g450">
          <path inkscape:connector-curvature="0" id="path452" d="m 210.292,609.625 0.866,-1.867 92.454,42.903 -0.867,1.867 -92.453,-42.903 z" style="fill:#f9f9f9;stroke:none"/>
          <path inkscape:connector-curvature="0" id="path454" d="m 210.306,609.595 0.845,-1.822 92.454,42.904 -0.846,1.821 -92.453,-42.903 z" style="fill:#f3f3f3;stroke:none"/>
          <path inkscape:connector-curvature="0" id="path456" d="m 210.32,609.564 0.824,-1.775 92.454,42.903 -0.825,1.776 -92.453,-42.904 z" style="fill:#ededed;stroke:none"/>
          <path inkscape:connector-curvature="0" id="path458" d="m 210.334,609.534 0.803,-1.73 92.453,42.903 -0.802,1.73 -92.454,-42.903 z" style="fill:#e7e7e7;stroke:none"/>
          <path inkscape:connector-curvature="0" id="path460" d="m 210.349,609.503 0.781,-1.684 92.453,42.903 -0.781,1.685 -92.453,-42.904 z" style="fill:#e1e1e1;stroke:none"/>
          <path inkscape:connector-curvature="0" id="path462" d="m 210.363,609.473 0.76,-1.639 92.453,42.903 -0.76,1.639 -92.453,-42.903 z" style="fill:#dbdbdb;stroke:none"/>
          <path inkscape:connector-curvature="0" id="path464" d="m 210.377,609.443 0.739,-1.594 92.453,42.904 -0.739,1.593 -92.453,-42.903 z" style="fill:#d5d5d5;stroke:none"/>
          <path inkscape:connector-curvature="0" id="path466" d="m 210.391,609.412 0.718,-1.547 92.453,42.903 -0.718,1.547 -92.453,-42.903 z" style="fill:#cfcfcf;stroke:none"/>
          <path inkscape:connector-curvature="0" id="path468" d="m 210.405,609.382 0.697,-1.502 92.453,42.903 -0.697,1.502 -92.453,-42.903 z" style="fill:#c9c9c9;stroke:none"/>
          <path inkscape:connector-curvature="0" id="path470" d="m 210.419,609.351 0.676,-1.456 92.453,42.903 -0.676,1.456 -92.453,-42.903 z" style="fill:#c3c3c3;stroke:none"/>
          <path inkscape:connector-curvature="0" id="path472" d="m 210.433,609.321 0.655,-1.411 92.453,42.903 -0.654,1.411 -92.454,-42.903 z" style="fill:#bdbdbd;stroke:none"/>
          <path inkscape:connector-curvature="0" id="path474" d="m 210.448,609.29 0.633,-1.365 92.453,42.904 -0.633,1.364 -92.453,-42.903 z" style="fill:#b7b7b7;stroke:none"/>
          <path inkscape:connector-curvature="0" id="path476" d="m 210.462,609.26 0.612,-1.319 92.453,42.903 -0.612,1.319 -92.453,-42.903 z" style="fill:#b1b1b1;stroke:none"/>
          <path inkscape:connector-curvature="0" id="path478" d="m 210.476,609.229 0.591,-1.273 92.453,42.903 -0.591,1.274 -92.453,-42.904 z" style="fill:#ababab;stroke:none"/>
          <path inkscape:connector-curvature="0" id="path480" d="m 210.49,609.199 0.57,-1.228 92.453,42.903 -0.57,1.228 -92.453,-42.903 z" style="fill:#a5a5a5;stroke:none"/>
          <path inkscape:connector-curvature="0" id="path482" d="m 210.504,609.168 0.549,-1.182 92.453,42.904 -0.549,1.182 -92.453,-42.904 z" style="fill:#9f9f9f;stroke:none"/>
          <path inkscape:connector-curvature="0" id="path484" d="m 210.518,609.138 0.528,-1.137 92.453,42.904 -0.528,1.136 -92.453,-42.903 z" style="fill:#999999;stroke:none"/>
          <path inkscape:connector-curvature="0" id="path486" d="m 210.532,609.107 0.507,-1.09 92.453,42.903 -0.506,1.091 -92.454,-42.904 z" style="fill:#939393;stroke:none"/>
          <path inkscape:connector-curvature="0" id="path488" d="m 210.547,609.077 0.485,-1.045 92.453,42.903 -0.485,1.045 -92.453,-42.903 z" style="fill:#8e8e8e;stroke:none"/>
          <path inkscape:connector-curvature="0" id="path490" d="m 210.561,609.047 0.464,-1 92.453,42.903 -0.464,1 -92.453,-42.903 z" style="fill:#878787;stroke:none"/>
          <path inkscape:connector-curvature="0" id="path492" d="m 210.575,609.016 0.442,-0.954 92.454,42.904 -0.443,0.953 -92.453,-42.903 z" style="fill:#828282;stroke:none"/>
          <path inkscape:connector-curvature="0" id="path494" d="m 210.589,608.986 0.421,-0.908 92.454,42.903 -0.422,0.908 -92.453,-42.903 z" style="fill:#7c7c7c;stroke:none"/>
          <path inkscape:connector-curvature="0" id="path496" d="m 210.603,608.955 0.4,-0.862 92.453,42.903 -0.4,0.862 -92.453,-42.903 z" style="fill:#767676;stroke:none"/>
          <path inkscape:connector-curvature="0" id="path498" d="m 210.617,608.925 0.379,-0.817 92.453,42.903 -0.379,0.817 -92.453,-42.903 z" style="fill:#707070;stroke:none"/>
          <path inkscape:connector-curvature="0" id="path500" d="m 210.631,608.894 0.358,-0.771 92.453,42.903 -0.357,0.771 -92.454,-42.903 z" style="fill:#6a6a6a;stroke:none"/>
          <path inkscape:connector-curvature="0" id="path502" d="m 210.646,608.864 0.336,-0.726 92.453,42.904 -0.336,0.725 -92.453,-42.903 z" style="fill:#646464;stroke:none"/>
          <path inkscape:connector-curvature="0" id="path504" d="m 210.66,608.833 0.315,-0.679 92.453,42.903 -0.315,0.68 -92.453,-42.904 z" style="fill:#5e5e5e;stroke:none"/>
          <path inkscape:connector-curvature="0" id="path506" d="m 210.674,608.803 0.294,-0.634 92.453,42.903 -0.294,0.634 -92.453,-42.903 z" style="fill:#585858;stroke:none"/>
          <path inkscape:connector-curvature="0" id="path508" d="m 210.688,608.772 0.273,-0.588 92.453,42.903 -0.273,0.589 -92.453,-42.904 z" style="fill:#525252;stroke:none"/>
        </g>
        <path inkscape:connector-curvature="0" id="path510" d="m 210.702,608.742 0.252,-0.543 92.453,42.903 -0.252,0.543 -92.453,-42.903 z" style="fill:#4c4c4c;stroke:none"/>
      </g>
      <path style="fill:none;stroke:#666666;stroke-width:3;stroke-linecap:butt;stroke-linejoin:miter;stroke-miterlimit:4;stroke-opacity:1;stroke-dasharray:none" d="m 1767.4131,442.00124 79.0396,-37.32425 766.888,-246.92072" id="path3649" inkscape:connector-curvature="0" transform="matrix(0.8, 0, 0, 0.8, 0, -3.61049e-05)" sodipodi:nodetypes="ccc"/>
      <g id="g512" transform="matrix(0.792232, 0.941571, -0.941571, 0.792232, 1723.55, -391.994)">
        <path inkscape:connector-curvature="0" id="path514" d="m 518.738,35.5488 c 3.696,1.7149 5.303,6.1064 3.588,9.8017 -1.715,3.6954 -6.106,5.3029 -9.801,3.5881 -3.696,-1.7148 -5.303,-6.1063 -3.588,-9.8017 1.714,-3.6953 6.106,-5.3029 9.801,-3.5881 z" style="fill:#7f7f7f;stroke:none"/>
        <g id="g516">
          <path inkscape:connector-curvature="0" id="path518" d="m 518.523,35.6874 c 3.595,1.6682 5.159,5.9402 3.49,9.5351 -1.668,3.5949 -5.94,5.1588 -9.535,3.4905 -3.595,-1.6682 -5.159,-5.9402 -3.49,-9.5351 1.668,-3.5949 5.94,-5.1587 9.535,-3.4905 z" style="fill:#8c8c8c;stroke:none"/>
          <path inkscape:connector-curvature="0" id="path520" d="m 518.307,35.8259 c 3.495,1.6216 5.015,5.7742 3.393,9.2686 -1.621,3.4944 -5.774,5.0146 -9.268,3.393 -3.495,-1.6216 -5.015,-5.7742 -3.393,-9.2686 1.621,-3.4945 5.774,-5.0146 9.268,-3.393 z" style="fill:#999999;stroke:none"/>
          <path inkscape:connector-curvature="0" id="path522" d="m 518.092,35.9644 c 3.394,1.575 4.87,5.6082 3.295,9.0022 -1.575,3.3939 -5.608,4.8703 -9.002,3.2954 -3.394,-1.575 -4.87,-5.6083 -3.295,-9.0022 1.575,-3.3939 5.608,-4.8703 9.002,-3.2954 z" style="fill:#a5a5a5;stroke:none"/>
          <path inkscape:connector-curvature="0" id="path524" d="m 517.877,36.103 c 3.293,1.5283 4.726,5.4421 3.198,8.7356 -1.529,3.2934 -5.443,4.7261 -8.736,3.1978 -3.294,-1.5283 -4.726,-5.4422 -3.198,-8.7356 1.528,-3.2935 5.442,-4.7262 8.736,-3.1978 z" style="fill:#b2b2b2;stroke:none"/>
          <path inkscape:connector-curvature="0" id="path526" d="m 517.661,36.2415 c 3.193,1.4816 4.582,5.2761 3.101,8.4691 -1.482,3.1929 -5.277,4.5819 -8.47,3.1003 -3.192,-1.4818 -4.582,-5.2762 -3.1,-8.4692 1.482,-3.193 5.276,-4.5819 8.469,-3.1002 z" style="fill:#bfbfbf;stroke:none"/>
          <path inkscape:connector-curvature="0" id="path528" d="m 517.446,36.38 c 3.092,1.4351 4.438,5.1101 3.003,8.2026 -1.435,3.0924 -5.11,4.4378 -8.203,3.0027 -3.092,-1.4351 -4.438,-5.1101 -3.003,-8.2026 1.435,-3.0925 5.11,-4.4378 8.203,-3.0027 z" style="fill:#cccccc;stroke:none"/>
          <path inkscape:connector-curvature="0" id="path530" d="m 517.231,36.5185 c 2.992,1.3885 4.293,4.9441 2.905,7.9361 -1.389,2.992 -4.944,4.2936 -7.936,2.9051 -2.992,-1.3884 -4.294,-4.9441 -2.906,-7.9361 1.389,-2.992 4.945,-4.2935 7.937,-2.9051 z" style="fill:#d8d8d8;stroke:none"/>
          <path inkscape:connector-curvature="0" id="path532" d="m 517.015,36.657 c 2.892,1.3418 4.15,4.7781 2.808,7.6696 -1.342,2.8915 -4.778,4.1494 -7.67,2.8076 -2.891,-1.3418 -4.149,-4.7781 -2.807,-7.6696 1.341,-2.8915 4.778,-4.1494 7.669,-2.8076 z" style="fill:#e5e5e5;stroke:none"/>
          <path inkscape:connector-curvature="0" id="path534" d="m 516.8,36.7955 c 2.791,1.2953 4.005,4.612 2.71,7.4031 -1.295,2.791 -4.612,4.0052 -7.403,2.71 -2.791,-1.2952 -4.005,-4.612 -2.71,-7.403 1.295,-2.7911 4.612,-4.0052 7.403,-2.7101 z" style="fill:#f2f2f2;stroke:none"/>
        </g>
        <path inkscape:connector-curvature="0" id="path536" d="m 516.584,36.9341 c 2.691,1.2486 3.861,4.4459 2.613,7.1365 -1.249,2.6906 -4.446,3.861 -7.137,2.6124 -2.69,-1.2485 -3.861,-4.4459 -2.612,-7.1364 1.248,-2.6906 4.446,-3.8611 7.136,-2.6125 z" style="fill:#ffffff;stroke:none"/>
      </g>
      <path sodipodi:nodetypes="ccc" inkscape:connector-curvature="0" id="path4431" d="m 1413.9305,364.80097 63.2317,-29.8594 589.9126,-187.60069" style="fill:none;stroke:#666666;stroke-width:2.4000001;stroke-linecap:butt;stroke-linejoin:miter;stroke-miterlimit:4;stroke-opacity:1;stroke-dasharray:none"/>
      <g id="g538" transform="matrix(0.792232, 0.941571, -0.941571, 0.792232, 1723.55, -391.994)">
        <path inkscape:connector-curvature="0" id="path540" d="m 518.738,63.9964 c 3.696,1.7148 5.303,6.1063 3.588,9.8017 -1.715,3.6954 -6.106,5.3029 -9.801,3.5881 -3.696,-1.7149 -5.303,-6.1064 -3.588,-9.8017 1.714,-3.6954 6.106,-5.3029 9.801,-3.5881 z" style="fill:#7f7f7f;stroke:none"/>
        <g id="g542">
          <path inkscape:connector-curvature="0" id="path544" d="m 518.523,64.1348 c 3.595,1.6682 5.159,5.9402 3.49,9.5351 -1.668,3.5949 -5.94,5.1588 -9.535,3.4905 -3.595,-1.6682 -5.159,-5.9402 -3.49,-9.5351 1.668,-3.5949 5.94,-5.1587 9.535,-3.4905 z" style="fill:#8c8c8c;stroke:none"/>
          <path inkscape:connector-curvature="0" id="path546" d="m 518.307,64.2731 c 3.495,1.6216 5.015,5.7742 3.393,9.2686 -1.621,3.4944 -5.774,5.0146 -9.268,3.393 -3.495,-1.6216 -5.015,-5.7742 -3.393,-9.2686 1.621,-3.4945 5.774,-5.0146 9.268,-3.393 z" style="fill:#999999;stroke:none"/>
          <path inkscape:connector-curvature="0" id="path548" d="m 518.092,64.4114 c 3.394,1.575 4.87,5.6082 3.295,9.0022 -1.575,3.3939 -5.608,4.8703 -9.002,3.2954 -3.394,-1.575 -4.87,-5.6082 -3.295,-9.0022 1.575,-3.3939 5.608,-4.8703 9.002,-3.2954 z" style="fill:#a5a5a5;stroke:none"/>
          <path inkscape:connector-curvature="0" id="path550" d="m 517.877,64.5498 c 3.293,1.5283 4.726,5.4421 3.198,8.7356 -1.529,3.2935 -5.443,4.7261 -8.736,3.1978 -3.294,-1.5283 -4.726,-5.4421 -3.198,-8.7356 1.528,-3.2934 5.442,-4.7262 8.736,-3.1978 z" style="fill:#b2b2b2;stroke:none"/>
          <path inkscape:connector-curvature="0" id="path552" d="m 517.661,64.6881 c 3.193,1.4818 4.582,5.2761 3.101,8.4691 -1.482,3.193 -5.277,4.582 -8.47,3.1003 -3.192,-1.4817 -4.582,-5.2761 -3.1,-8.4691 1.482,-3.193 5.276,-4.582 8.469,-3.1003 z" style="fill:#bfbfbf;stroke:none"/>
          <path inkscape:connector-curvature="0" id="path554" d="m 517.446,64.8265 c 3.092,1.435 4.438,5.11 3.003,8.2026 -1.435,3.0924 -5.11,4.4378 -8.203,3.0026 -3.092,-1.435 -4.438,-5.11 -3.003,-8.2025 1.435,-3.0925 5.11,-4.4378 8.203,-3.0027 z" style="fill:#cccccc;stroke:none"/>
          <path inkscape:connector-curvature="0" id="path556" d="m 517.231,64.9648 c 2.992,1.3885 4.293,4.9441 2.905,7.9361 -1.389,2.992 -4.944,4.2936 -7.936,2.9051 -2.992,-1.3885 -4.294,-4.944 -2.906,-7.9361 1.389,-2.992 4.945,-4.2935 7.937,-2.9051 z" style="fill:#d8d8d8;stroke:none"/>
          <path inkscape:connector-curvature="0" id="path558" d="m 517.015,65.1031 c 2.892,1.3419 4.15,4.7781 2.808,7.6696 -1.342,2.8915 -4.778,4.1494 -7.67,2.8076 -2.891,-1.3418 -4.149,-4.7781 -2.807,-7.6695 1.341,-2.8916 4.778,-4.1494 7.669,-2.8077 z" style="fill:#e5e5e5;stroke:none"/>
          <path inkscape:connector-curvature="0" id="path560" d="m 516.8,65.2415 c 2.791,1.2952 4.005,4.612 2.71,7.403 -1.295,2.791 -4.612,4.0052 -7.403,2.7101 -2.791,-1.2953 -4.005,-4.612 -2.71,-7.4031 1.295,-2.791 4.612,-4.0052 7.403,-2.71 z" style="fill:#f2f2f2;stroke:none"/>
        </g>
        <path inkscape:connector-curvature="0" id="path562" d="m 516.584,65.3798 c 2.691,1.2486 3.861,4.446 2.613,7.1366 -1.249,2.6905 -4.446,3.861 -7.137,2.6124 -2.69,-1.2486 -3.861,-4.4459 -2.612,-7.1365 1.248,-2.6905 4.446,-3.861 7.136,-2.6125 z" style="fill:#ffffff;stroke:none"/>
      </g>
      <path style="fill:none;stroke:#666666;stroke-width:2.4000001;stroke-linecap:butt;stroke-linejoin:miter;stroke-miterlimit:4;stroke-opacity:1;stroke-dasharray:none" d="m 1420.3305,379.20097 64.4737,-33.58536 551.411,-175.18082" id="path4433" inkscape:connector-curvature="0" sodipodi:nodetypes="ccc"/>
      <g id="g564" transform="matrix(0.792232, 0.941571, -0.941571, 0.792232, 1723.55, -391.994)">
        <path inkscape:connector-curvature="0" id="path566" d="m 518.738,92.4421 c 3.696,1.7149 5.303,6.1064 3.588,9.8019 -1.715,3.695 -6.106,5.303 -9.801,3.588 -3.696,-1.715 -5.303,-6.1064 -3.588,-9.8017 1.714,-3.6954 6.106,-5.303 9.801,-3.5882 z" style="fill:#7f7f7f;stroke:none"/>
        <g id="g568">
          <path inkscape:connector-curvature="0" id="path570" d="m 518.523,92.5805 c 3.595,1.6682 5.159,5.9403 3.49,9.5355 -1.668,3.595 -5.94,5.158 -9.535,3.49 -3.595,-1.668 -5.159,-5.9401 -3.49,-9.535 1.668,-3.5949 5.94,-5.1587 9.535,-3.4905 z" style="fill:#8c8c8c;stroke:none"/>
          <path inkscape:connector-curvature="0" id="path572" d="m 518.307,92.7189 c 3.495,1.6216 5.015,5.7741 3.393,9.2681 -1.621,3.495 -5.774,5.015 -9.268,3.393 -3.495,-1.621 -5.015,-5.7738 -3.393,-9.2682 1.621,-3.4944 5.774,-5.0146 9.268,-3.3929 z" style="fill:#999999;stroke:none"/>
          <path inkscape:connector-curvature="0" id="path574" d="m 518.092,92.8572 c 3.394,1.5749 4.87,5.6082 3.295,9.0018 -1.575,3.394 -5.608,4.871 -9.002,3.296 -3.394,-1.575 -4.87,-5.6085 -3.295,-9.0024 1.575,-3.3939 5.608,-4.8704 9.002,-3.2954 z" style="fill:#a5a5a5;stroke:none"/>
          <path inkscape:connector-curvature="0" id="path576" d="m 517.877,92.9955 c 3.293,1.5284 4.726,5.4422 3.198,8.7355 -1.529,3.294 -5.443,4.726 -8.736,3.198 -3.294,-1.528 -4.726,-5.4422 -3.198,-8.7356 1.528,-3.2935 5.442,-4.7262 8.736,-3.1979 z" style="fill:#b2b2b2;stroke:none"/>
          <path inkscape:connector-curvature="0" id="path578" d="m 517.661,93.1339 c 3.193,1.4817 4.582,5.2761 3.101,8.4691 -1.482,3.193 -5.277,4.582 -8.47,3.1 -3.192,-1.482 -4.582,-5.2759 -3.1,-8.4689 1.482,-3.1929 5.276,-4.5819 8.469,-3.1002 z" style="fill:#bfbfbf;stroke:none"/>
          <path inkscape:connector-curvature="0" id="path580" d="m 517.446,93.2722 c 3.092,1.4351 4.438,5.1101 3.003,8.2028 -1.435,3.092 -5.11,4.438 -8.203,3.002 -3.092,-1.435 -4.438,-5.1096 -3.003,-8.2021 1.435,-3.0925 5.11,-4.4377 8.203,-3.0027 z" style="fill:#cccccc;stroke:none"/>
          <path inkscape:connector-curvature="0" id="path582" d="m 517.231,93.4106 c 2.992,1.3884 4.293,4.944 2.905,7.9364 -1.389,2.992 -4.944,4.293 -7.936,2.905 -2.992,-1.389 -4.294,-4.9443 -2.906,-7.9363 1.389,-2.992 4.945,-4.2936 7.937,-2.9051 z" style="fill:#d8d8d8;stroke:none"/>
          <path inkscape:connector-curvature="0" id="path584" d="m 517.015,93.5489 c 2.892,1.3418 4.15,4.778 2.808,7.6691 -1.342,2.892 -4.778,4.15 -7.67,2.808 -2.891,-1.342 -4.149,-4.778 -2.807,-7.6695 1.341,-2.8915 4.778,-4.1494 7.669,-2.8076 z" style="fill:#e5e5e5;stroke:none"/>
          <path inkscape:connector-curvature="0" id="path586" d="m 516.8,93.6873 c 2.791,1.2951 4.005,4.6119 2.71,7.4027 -1.295,2.791 -4.612,4.006 -7.403,2.71 -2.791,-1.295 -4.005,-4.6117 -2.71,-7.4027 1.295,-2.7911 4.612,-4.0053 7.403,-2.71 z" style="fill:#f2f2f2;stroke:none"/>
        </g>
        <path inkscape:connector-curvature="0" id="path588" d="m 516.584,93.8256 c 2.691,1.2486 3.861,4.4459 2.613,7.1364 -1.249,2.691 -4.446,3.861 -7.137,2.613 -2.69,-1.249 -3.861,-4.4464 -2.612,-7.137 1.248,-2.6905 4.446,-3.861 7.136,-2.6124 z" style="fill:#ffffff;stroke:none"/>
      </g>
      <path inkscape:connector-curvature="0" id="path590" d="m 1407.5045,346.73407 4.7146,-1.50058 14.2877,44.88093 -4.7146,1.50058 -14.2877,-44.88093 z" style="fill:#330000;stroke:#000000;stroke-width:0.19827569"/>
    </g>
  </g>
</svg>